<svg xmlns="http://www.w3.org/2000/svg" xmlns:xlink="http://www.w3.org/1999/xlink" viewBox="0 0 199.37 521.05">
  <title>
    Asset 1
  </title>
  <g id="Layer_2" data-name="Layer 2">
    <g id="Layer_1-2" data-name="Layer 1">
      <rect x="7.49" y="369.69" width="56.66" height="87.83" transform="translate(-67.37 11.48) rotate(-9.44)" fill="#f5f5f6" stroke="#fff" stroke-linecap="round" stroke-linejoin="round" stroke-width="1.34"/>
      <rect x="4.16" y="375.81" width="9.21" height="9.21" transform="translate(-62.33 6.6) rotate(-9.45)" fill="#3c4d61"/>
      <rect x="14.64" y="374.06" width="9.21" height="9.21" transform="translate(-61.83 8.28) rotate(-9.44)" fill="#3c4d61"/>
      <rect x="25.12" y="372.32" width="9.21" height="9.21" transform="translate(-61.47 9.99) rotate(-9.45)" fill="#3c4d61"/>
      <rect x="35.6" y="370.58" width="9.21" height="9.21" transform="translate(-61.14 11.72) rotate(-9.46)" fill="#3c4d61"/>
      <rect x="46.08" y="368.84" width="9.21" height="9.21" transform="translate(-60.62 13.39) rotate(-9.45)" fill="#3c4d61"/>
      <rect x="5.9" y="386.29" width="9.21" height="9.21" transform="translate(-64 7.02) rotate(-9.44)" fill="#3c4d61"/>
      <rect x="16.38" y="384.54" width="9.21" height="9.21" transform="translate(-63.57 8.72) rotate(-9.44)" fill="#3c4d61"/>
      <rect x="26.86" y="382.8" width="9.21" height="9.21" transform="translate(-63.1 10.4) rotate(-9.44)" fill="#3c4d61"/>
      <rect x="37.34" y="381.06" width="9.21" height="9.21" transform="translate(-62.76 12.12) rotate(-9.45)" fill="#3c4d61"/>
      <rect x="47.82" y="379.32" width="9.21" height="9.21" transform="translate(-62.33 13.82) rotate(-9.45)" fill="#3c4d61"/>
      <rect x="7.65" y="396.77" width="9.21" height="9.21" transform="translate(-65.68 7.45) rotate(-9.44)" fill="#3c4d61"/>
      <rect x="18.13" y="395.02" width="9.21" height="9.21" transform="translate(-65.22 9.14) rotate(-9.44)" fill="#3c4d61"/>
      <rect x="28.6" y="393.28" width="9.21" height="9.21" transform="translate(-64.79 10.83) rotate(-9.44)" fill="#3c4d61"/>
      <rect x="39.08" y="391.54" width="9.21" height="9.21" transform="translate(-64.45 12.55) rotate(-9.45)" fill="#3c4d61"/>
      <rect x="49.57" y="389.79" width="9.21" height="9.21" transform="translate(-63.99 14.24) rotate(-9.45)" fill="#3c4d61"/>
      <rect x="9.39" y="407.25" width="9.21" height="9.21" transform="translate(-67.35 7.87) rotate(-9.44)" fill="#3c4d61"/>
      <rect x="19.87" y="405.51" width="9.21" height="9.21" transform="translate(-66.95 9.57) rotate(-9.44)" fill="#3c4d61"/>
      <rect x="30.35" y="403.76" width="9.21" height="9.21" transform="translate(-66.54 11.27) rotate(-9.45)" fill="#3c4d61"/>
      <rect x="40.83" y="402.02" width="9.21" height="9.21" transform="translate(-66.1 12.97) rotate(-9.44)" fill="#3c4d61"/>
      <rect x="51.31" y="400.28" width="9.21" height="9.21" transform="translate(-65.62 14.64) rotate(-9.44)" fill="#3c4d61"/>
      <rect x="11.13" y="417.73" width="9.21" height="9.21" transform="matrix(0.99, -0.16, 0.16, 0.99, -69.13, 8.32)" fill="#3c4d61"/>
      <rect x="21.61" y="415.98" width="9.21" height="9.21" transform="translate(-68.71 10.01) rotate(-9.45)" fill="#3c4d61"/>
      <rect x="32.09" y="414.24" width="9.21" height="9.21" transform="translate(-68.18 11.69) rotate(-9.44)" fill="#3c4d61"/>
      <rect x="42.57" y="412.5" width="9.21" height="9.21" transform="translate(-67.74 13.38) rotate(-9.44)" fill="#3c4d61"/>
      <rect x="53.05" y="410.76" width="9.21" height="9.21" transform="translate(-67.29 15.06) rotate(-9.43)" fill="#3c4d61"/>
      <rect x="12.87" y="428.21" width="9.21" height="9.21" transform="translate(-70.73 8.72) rotate(-9.44)" fill="#3c4d61"/>
      <rect x="23.35" y="426.46" width="9.21" height="9.21" transform="translate(-70.3 10.42) rotate(-9.44)" fill="#3c4d61"/>
      <rect x="33.83" y="424.72" width="9.21" height="9.21" transform="translate(-69.97 12.14) rotate(-9.45)" fill="#3c4d61"/>
      <rect x="44.31" y="422.98" width="9.21" height="9.21" transform="translate(-69.53 13.83) rotate(-9.45)" fill="#3c4d61"/>
      <rect x="54.79" y="421.24" width="9.21" height="9.2" transform="translate(-69.15 15.54) rotate(-9.46)" fill="#3c4d61"/>
      <rect x="14.62" y="438.69" width="9.21" height="9.21" transform="translate(-72.43 9.15) rotate(-9.44)" fill="#3c4d61"/>
      <rect x="25.1" y="436.94" width="9.21" height="9.21" transform="matrix(0.99, -0.16, 0.16, 0.99, -72.06, 10.86)" fill="#3c4d61"/>
      <rect x="35.58" y="435.2" width="9.21" height="9.21" transform="translate(-71.63 12.56) rotate(-9.44)" fill="#3c4d61"/>
      <rect x="46.06" y="433.46" width="9.21" height="9.21" transform="translate(-71.14 14.23) rotate(-9.44)" fill="#3c4d61"/>
      <rect x="56.54" y="431.71" width="9.21" height="9.21" transform="translate(-70.71 15.93) rotate(-9.44)" fill="#3c4d61"/>
      <rect x="16.36" y="449.17" width="9.21" height="9.21" transform="translate(-74.28 9.61) rotate(-9.46)" fill="#3c4d61"/>
      <rect x="26.84" y="447.42" width="9.21" height="9.21" transform="translate(-73.69 11.27) rotate(-9.44)" fill="#3c4d61"/>
      <rect x="37.32" y="445.68" width="9.21" height="9.21" transform="matrix(0.99, -0.16, 0.16, 0.99, -73.32, 12.98)" fill="#3c4d61"/>
      <rect x="47.8" y="443.94" width="9.21" height="9.21" transform="translate(-72.95 14.7) rotate(-9.45)" fill="#3c4d61"/>
      <rect x="58.28" y="442.19" width="9.21" height="9.21" transform="translate(-72.4 16.36) rotate(-9.44)" fill="#3c4d61"/>
      <path d="M72.73,264.11l-.09-.86c.07-.43.1-.75.1-.75l-.6-6.21L57,256.75l-.43,5.19a3.08,3.08,0,0,0-.32,1.4v.77l.56,11.28H73.44Z" fill="#73645a"/>
      <path d="M33.25,368h0l-1.37-1.06,0-1L24,365.35l-.14,5a4.06,4.06,0,1,0,8.11.41h0v-.09A1.52,1.52,0,0,0,33.25,368Z" fill="#73645a"/>
      <g id="legs">
        <path d="M60.78,350.93c-9.71,1.94-13.39,1.83-13.24,10.82L63.47,431c2.31,6.09,10,10.21,16.15,8s10.65-9.67,8.41-15.89c-.15-.42-13.5-60.7-13.5-60.7C73,354.73,70.5,349,60.78,350.93Z" fill="#968a79"/>
        <path d="M69.22,417c-7.25,4.66-6.74,10.7-4.38,16.95l47.38,48.77c3.17,3.64,6.79-.41,8.11-1.66.62-.59,3.2-.87,0-4.62-.21-.25-35.29-55.85-35.29-55.85C82.08,415.61,74.1,413.82,69.22,417Z" fill="#968a79"/>
        <path d="M125.87,481.85l-6-6.19-7.14,7.24s-2.6,5.43-3.56,7.21a4.25,4.25,0,0,0-.7,1.71,1.56,1.56,0,0,0-.05.36,4.29,4.29,0,0,0,3.9,4.65C113.92,497,125.87,481.85,125.87,481.85Z" fill="#8a7570"/>
        <path d="M76.46,344.66c-9.1,3.92-12.73,4.56-10.72,13.33l29.93,64.43c3.53,5.48,11.9,7.92,17.46,4.48s8.42-11.67,4.94-17.29c-.24-.38-25.78-56.58-25.78-56.58C89.2,345.84,85.56,340.74,76.46,344.66Z" fill="#968a79"/>
        <path d="M98.39,407.5c-6.12,6.07-4.38,11.87-.77,17.49l56.46,37.89c3.85,2.9,6.56-1.81,7.59-3.3.49-.71,2.95-1.51-.91-4.53-.26-.2-46.1-47.32-46.1-47.32C110.69,403.52,102.52,403.42,98.39,407.5Z" fill="#968a79"/>
        <path d="M167.26,459.25l-7.16-4.8L154.62,463s-1.42,5.85-2,7.8a4.28,4.28,0,0,0-.34,1.82,1.5,1.5,0,0,0,0,.37,4.29,4.29,0,0,0,4.78,3.74C158.7,476.52,167.26,459.25,167.26,459.25Z" fill="#8a7570"/>
      </g>
      <path d="M74.84,254.22" fill="#c9b8a2"/>
      <path d="M75.91,241.92c0-.06,0-.11,0-.17,0-5.11-4.7-9.29-10.66-9.63v0h-1v0c-6,.35-10.66,4.53-10.66,9.63,0,.06,0,.11,0,.17-.07,2.25.64,7.43.67,8a19.46,19.46,0,0,0,1,4.34c0,.09.84,2,.88,2.1a31.72,31.72,0,0,0,2.1,2.76c3.31,3.35,6.41,3.51,6.42,3.51h.15s3.11-.16,6.42-3.51a31.79,31.79,0,0,0,2.1-2.76c0-.09.9-2,.88-2.1a19.61,19.61,0,0,0,1-4.34C75.28,249.35,76,244.17,75.91,241.92Z" fill="#87776a"/>
      <circle cx="39.13" cy="279.76" r="7.35" fill="#4c695e"/>
      <circle cx="94.61" cy="282.5" r="8.79" fill="#4c695e"/>
      <circle cx="30.6" cy="320.35" r="6.4" fill="#4c695e"/>
      <polygon points="46.49 279.76 32.28 277.09 29.12 288.64 29.15 288.64 24.37 318.86 36.56 321.01 44.5 288.58 46.49 279.76" fill="#4c695e"/>
      <path d="M61.9,240.67s-2.61-1-4.48.48" fill="none" stroke="#8a7570" stroke-linecap="round" stroke-miterlimit="10" stroke-width="0.55"/>
      <path d="M67.46,240.67s2.61-1,4.48.48" fill="none" stroke="#8a7570" stroke-linecap="round" stroke-miterlimit="10" stroke-width="0.55"/>
      <path d="M61.17,254.89s2.61-1,4.48.48" fill="none" stroke="#e5b696" stroke-linecap="round" stroke-miterlimit="10" stroke-width="0.55"/>
      <circle cx="59.34" cy="243.45" r="1.44" fill="#f5f5f6"/>
      <circle cx="59.34" cy="243.45" r="0.52" fill="#1e1e1c"/>
      <circle cx="69.99" cy="243.45" r="1.44" fill="#f5f5f6"/>
      <circle cx="69.99" cy="243.45" r="0.52" fill="#1e1e1c"/>
      <path d="M66.81,249.6c-.1-.6-1.59-4.36-1.59-4.36-.15-.25-.33-.18-.46-.24h-.14c-.12.06-.31,0-.46.24,0,0-1.5,3.75-1.59,4.36s-.19,1.46,1.24,1.59a4.85,4.85,0,0,0,1.77,0C67,251.07,66.91,250.21,66.81,249.6Z" fill="#bba896"/>
      <path d="M54.31,246.07s-1-1.41-1.74-.56.27,2.4.48,2.87.6,2,.94,2.66.31.94,1.07,1A54.2,54.2,0,0,0,54.31,246.07Z" fill="#87776a"/>
      <polygon points="36.78 321.9 24.2 320.35 23.98 365.64 31.93 366.26 36.78 321.9" fill="#4c695e"/>
      <path d="M130.72,282.83h0l.56,1.64-.54.84,6.24,4.87,2.87-4.05a4,4,0,0,0,.52-.87,4.06,4.06,0,0,0-7-4h0l0,.07a1.51,1.51,0,0,0-2.55,1.47Z" fill="#73645a"/>
      <circle cx="107.86" cy="322.32" r="6.4" transform="translate(-137.81 87.43) rotate(-27.78)" fill="#4c695e"/>
      <polygon points="102.99 279 89.17 283.26 91.76 294.95 91.79 294.94 101.65 323.91 113.44 320.13 105.34 287.73 102.99 279" fill="#4c695e"/>
      <polygon points="102.22 319.25 111.83 327.5 137.13 289.94 130.86 285.02 102.22 319.25" fill="#4c695e"/>
      <path d="M98.73,274.72l-21.07-10.8v-.07l-5.15-2.35c-.39,4.8-3.08,7.26-8,7.26s-7.5-2.36-8-7.08l-5,2.17-15.66,9.32,2.44,20.38,5.58,57.85V352l.05,0v.07c0,.59-.06,1.18-.06,1.78,0,7.36,50,2.62,50,2.62l-.75-63Z" fill="#4c695e"/>
      <circle cx="94.03" cy="338.25" r="1.54" fill="none" stroke="#fff" stroke-miterlimit="10" stroke-width="0.63"/>
      <line x1="94.03" y1="339.79" x2="94.03" y2="341.75" fill="none" stroke="#fff" stroke-miterlimit="10" stroke-width="0.63"/>
      <line x1="43.05" x2="43.05" y2="336.77" fill="none" stroke="#9d9c9a" stroke-miterlimit="10" stroke-width="0.57"/>
      <circle cx="43.03" cy="338.25" r="1.54" fill="none" stroke="#fff" stroke-miterlimit="10" stroke-width="0.63"/>
      <line x1="43.03" y1="339.79" x2="43.03" y2="341.75" fill="none" stroke="#fff" stroke-miterlimit="10" stroke-width="0.63"/>
      <path d="M42.93,341.34v.12s0-.08,0-.12Z" fill="#c7c6c7" stroke="#c7c6c7" stroke-linejoin="round" stroke-width="0.61"/>
      <path d="M94,341.34a1.05,1.05,0,0,1,0,.12v-.12Z" fill="#c7c6c7" stroke="#c7c6c7" stroke-linejoin="round" stroke-width="0.61"/>
      <path d="M68.48,347.71c-14.11,0-25.55-2.8-25.55-6.25v13.61h0s0,0,0,0c0,3.46,11.44,6.25,25.55,6.25S94,358.56,94,355.11c0,0,0,0,0,0h0V341.46C94,344.91,82.59,347.71,68.48,347.71Z" fill="#c7c6c7" stroke="#c7c6c7" stroke-linejoin="round" stroke-width="0.61"/>
      <line x1="94.05" x2="94.05" y2="336.77" fill="none" stroke="#9d9c9a" stroke-miterlimit="10" stroke-width="0.57"/>
      <circle cx="54.02" cy="244.61" r="0.8" fill="#363129"/>
      <path d="M75.51,245.57s1-1.41,1.74-.56-.27,2.4-.48,2.87-.61,2-.94,2.66-.31.94-1.07,1A54,54,0,0,1,75.51,245.57Z" fill="#87776a"/>
      <circle cx="59.31" cy="234.01" r="2.94" fill="#363129"/>
      <circle cx="63.17" cy="231.81" r="2.94" fill="#363129"/>
      <circle cx="66.81" cy="232.47" r="2.94" fill="#363129"/>
      <circle cx="69.24" cy="231.66" r="2.94" fill="#363129"/>
      <circle cx="71.34" cy="234.23" r="2.94" fill="#363129"/>
      <circle cx="75.2" cy="236.77" r="2.94" fill="#363129"/>
      <circle cx="55.78" cy="236.55" r="2.94" fill="#363129"/>
      <circle cx="62.4" cy="234.75" r="1.75" fill="#363129"/>
      <circle cx="64.09" cy="234.82" r="1.75" fill="#363129"/>
      <circle cx="66.74" cy="234.68" r="1.75" fill="#363129"/>
      <circle cx="69.31" cy="235.26" r="1.75" fill="#363129"/>
      <circle cx="72.55" cy="236.07" r="1.75" fill="#363129"/>
      <circle cx="56.15" cy="233.42" r="1.75" fill="#363129"/>
      <circle cx="59.53" cy="230.93" r="1.75" fill="#363129"/>
      <circle cx="57.62" cy="231.73" r="1.75" fill="#363129"/>
      <circle cx="74.39" cy="232.62" r="1.75" fill="#363129"/>
      <circle cx="75.71" cy="234.09" r="1.75" fill="#363129"/>
      <circle cx="61.45" cy="229.9" r="1.75" fill="#363129"/>
      <circle cx="63.58" cy="229.68" r="1.75" fill="#363129"/>
      <circle cx="72.33" cy="231.15" r="1.75" fill="#363129"/>
      <circle cx="66.52" cy="229.75" r="1.75" fill="#363129"/>
      <circle cx="58.5" cy="236.59" r="1.75" fill="#363129"/>
      <circle cx="54.39" cy="239.22" r="2.1" fill="#363129"/>
      <circle cx="54.21" cy="241.27" r="1.58" fill="#363129"/>
      <circle cx="54.03" cy="243.21" r="1.32" fill="#363129"/>
      <circle cx="59.62" cy="229.09" r="1.32" fill="#363129"/>
      <circle cx="64.62" cy="227.92" r="1.32" fill="#363129"/>
      <circle cx="67.12" cy="228.21" r="1.32" fill="#363129"/>
      <circle cx="62.42" cy="228.29" r="1.32" fill="#363129"/>
      <circle cx="60.65" cy="228.51" r="1.32" fill="#363129"/>
      <circle cx="63.23" cy="227.92" r="1.32" fill="#363129"/>
      <circle cx="65.58" cy="227.84" r="1.32" fill="#363129"/>
      <circle cx="68.81" cy="228.14" r="1.32" fill="#363129"/>
      <circle cx="70.51" cy="228.51" r="1.32" fill="#363129"/>
      <circle cx="71.68" cy="228.95" r="1.32" fill="#363129"/>
      <circle cx="72.94" cy="229.54" r="1.32" fill="#363129"/>
      <circle cx="74.26" cy="230.49" r="1.32" fill="#363129"/>
      <circle cx="58.08" cy="229.76" r="1.32" fill="#363129"/>
      <circle cx="56.02" cy="232.26" r="1.32" fill="#363129"/>
      <circle cx="56.59" cy="230.78" r="1.32" fill="#363129"/>
      <circle cx="54.6" cy="234.09" r="1.32" fill="#363129"/>
      <circle cx="54.9" cy="232.25" r="1.32" fill="#363129"/>
      <circle cx="75.19" cy="231.74" r="1.32" fill="#363129"/>
      <circle cx="75.64" cy="239.22" r="2.1" fill="#363129"/>
      <circle cx="75.82" cy="241.27" r="1.58" fill="#363129"/>
      <circle cx="75.99" cy="243.21" r="1.32" fill="#363129"/>
      <circle cx="76.01" cy="244.61" r="0.8" fill="#363129"/>
      <path d="M73.47,304.14A5.29,5.29,0,0,0,64,299.36a5.18,5.18,0,0,0-.29.72h0l-8.32,25.59h0a1.06,1.06,0,1,0,1.89,1h0L73.06,304.8h0A5.54,5.54,0,0,0,73.47,304.14Z" fill="#e48d6d"/>
      <path d="M69.88,299.06s5.23-4.15,13.41-10.21" fill="none" stroke="#88b57b" stroke-linecap="round" stroke-miterlimit="10" stroke-width="0.92"/>
      <path d="M70.26,298.38s3.64-4.47,10.63-11.64" fill="none" stroke="#9dca8c" stroke-linecap="round" stroke-miterlimit="10" stroke-width="0.92"/>
      <path d="M69.88,299.06a65.94,65.94,0,0,1,5.58-15.27" fill="none" stroke="#9dca8c" stroke-linecap="round" stroke-miterlimit="10" stroke-width="0.92"/>
      <path d="M69.64,299.22a121.94,121.94,0,0,1,9.73-16.66" fill="none" stroke="#88b57b" stroke-linecap="round" stroke-miterlimit="10" stroke-width="0.92"/>
      <path d="M69.88,299.06s.3-6.56.36-16.74" fill="none" stroke="#88b57b" stroke-linecap="round" stroke-miterlimit="10" stroke-width="0.92"/>
      <path d="M64.86,301.71a18.34,18.34,0,0,1,4.08,1.43" fill="none" stroke="#e5b696" stroke-linecap="round" stroke-miterlimit="10" stroke-width="0.92"/>
      <path d="M62.11,315.17s1,.88,1.87,1.54" fill="none" stroke="#e5b696" stroke-linecap="round" stroke-miterlimit="10" stroke-width="0.92"/>
      <path d="M57.47,320.35a4.47,4.47,0,0,1,1.33.77" fill="none" stroke="#e5b696" stroke-linecap="round" stroke-miterlimit="10" stroke-width="0.92"/>
      <path d="M66.85,307.33s1.32.77,2.21,1.43" fill="none" stroke="#e5b696" stroke-linecap="round" stroke-miterlimit="10" stroke-width="0.92"/>
      <path d="M61.22,309.65a7.94,7.94,0,0,1,1.77,1" fill="none" stroke="#e5b696" stroke-linecap="round" stroke-miterlimit="10" stroke-width="0.92"/>
      <circle cx="137.7" cy="276.34" r="7.69" fill="#a4b79d"/>
      <path d="M137.92,270.83s-.22-2.87,1.57-3.37" fill="none" stroke="#8a7570" stroke-linecap="round" stroke-miterlimit="10" stroke-width="1.27"/>
      <path d="M133,274.71s.21-2,1.89-2" fill="none" stroke="#d9d9d9" stroke-linecap="round" stroke-miterlimit="10" stroke-width="1.27"/>
    </g>
  </g>
</svg>
