<svg id="duurzaamheid" data-name="Layer 1" xmlns="http://www.w3.org/2000/svg" xmlns:xlink="http://www.w3.org/1999/xlink" viewBox="0 0 199.56 520.23">
  <title>
    duurzaamheidsman
  </title>
  <rect x="217.13" y="368.64" width="56.66" height="87.83" transform="translate(-273.99 46.91) rotate(-9.44)" fill="#f5f5f6" stroke="#fff" stroke-linecap="round" stroke-linejoin="round" stroke-width="1.34"/>
  <rect x="213.79" y="374.76" width="9.21" height="9.21" transform="translate(-268.95 42.05) rotate(-9.45)" fill="#3c4d61"/>
  <rect x="224.27" y="373.01" width="9.21" height="9.21" transform="translate(-268.46 43.69) rotate(-9.44)" fill="#3c4d61"/>
  <rect x="234.75" y="371.27" width="9.21" height="9.21" transform="translate(-268.09 45.44) rotate(-9.45)" fill="#3c4d61"/>
  <rect x="245.23" y="369.52" width="9.21" height="9.21" transform="translate(-267.75 47.22) rotate(-9.46)" fill="#3c4d61"/>
  <rect x="255.71" y="367.78" width="9.21" height="9.21" transform="translate(-267.24 48.84) rotate(-9.45)" fill="#3c4d61"/>
  <rect x="215.54" y="385.23" width="9.21" height="9.21" transform="translate(-270.62 42.46) rotate(-9.44)" fill="#3c4d61"/>
  <rect x="226.02" y="383.49" width="9.21" height="9.21" transform="translate(-270.19 44.15) rotate(-9.44)" fill="#3c4d61"/>
  <rect x="236.5" y="381.75" width="9.21" height="9.21" transform="translate(-269.73 45.82) rotate(-9.44)" fill="#3c4d61"/>
  <rect x="246.98" y="380.01" width="9.21" height="9.21" transform="translate(-269.37 47.58) rotate(-9.45)" fill="#3c4d61"/>
  <rect x="257.46" y="378.26" width="9.21" height="9.21" transform="translate(-268.95 49.28) rotate(-9.45)" fill="#3c4d61"/>
  <rect x="217.28" y="395.72" width="9.21" height="9.21" transform="translate(-272.31 42.88) rotate(-9.44)" fill="#3c4d61"/>
  <rect x="227.76" y="393.97" width="9.21" height="9.21" transform="translate(-271.85 44.55) rotate(-9.44)" fill="#3c4d61"/>
  <rect x="238.24" y="392.23" width="9.21" height="9.21" transform="translate(-271.42 46.24) rotate(-9.44)" fill="#3c4d61"/>
  <rect x="248.72" y="390.49" width="9.21" height="9.21" transform="translate(-271.06 48.01) rotate(-9.45)" fill="#3c4d61"/>
  <rect x="259.2" y="388.74" width="9.21" height="9.21" transform="translate(-270.61 49.68) rotate(-9.45)" fill="#3c4d61"/>
  <rect x="219.02" y="406.19" width="9.21" height="9.21" transform="translate(-273.97 43.28) rotate(-9.44)" fill="#3c4d61"/>
  <rect x="229.5" y="404.45" width="9.21" height="9.21" transform="translate(-273.57 45) rotate(-9.44)" fill="#3c4d61"/>
  <rect x="239.98" y="402.71" width="9.21" height="9.21" transform="translate(-273.16 46.71) rotate(-9.45)" fill="#3c4d61"/>
  <rect x="250.46" y="400.96" width="9.21" height="9.21" transform="translate(-272.73 48.4) rotate(-9.44)" fill="#3c4d61"/>
  <rect x="260.94" y="399.22" width="9.21" height="9.21" transform="translate(-272.25 50.05) rotate(-9.44)" fill="#3c4d61"/>
  <rect x="220.77" y="416.67" width="9.21" height="9.21" transform="matrix(0.99, -0.16, 0.16, 0.99, -275.75, 43.77)" fill="#3c4d61"/>
  <rect x="231.25" y="414.93" width="9.21" height="9.21" transform="translate(-275.32 45.47) rotate(-9.45)" fill="#3c4d61"/>
  <rect x="241.73" y="413.19" width="9.21" height="9.21" transform="translate(-274.81 47.1) rotate(-9.44)" fill="#3c4d61"/>
  <rect x="252.21" y="411.45" width="9.21" height="9.21" transform="translate(-274.37 48.78) rotate(-9.44)" fill="#3c4d61"/>
  <rect x="262.69" y="409.7" width="9.21" height="9.21" transform="translate(-273.92 50.46) rotate(-9.43)" fill="#3c4d61"/>
  <rect x="222.51" y="427.15" width="9.21" height="9.21" transform="translate(-277.35 44.13) rotate(-9.44)" fill="#3c4d61"/>
  <rect x="232.99" y="425.41" width="9.21" height="9.21" transform="translate(-276.93 45.83) rotate(-9.44)" fill="#3c4d61"/>
  <rect x="243.47" y="423.67" width="9.21" height="9.21" transform="translate(-276.59 47.6) rotate(-9.45)" fill="#3c4d61"/>
  <rect x="253.95" y="421.92" width="9.21" height="9.21" transform="translate(-276.15 49.29) rotate(-9.45)" fill="#3c4d61"/>
  <rect x="264.43" y="420.18" width="9.21" height="9.2" transform="translate(-275.76 51.02) rotate(-9.46)" fill="#3c4d61"/>
  <rect x="224.25" y="437.63" width="9.21" height="9.21" transform="translate(-279.05 44.56) rotate(-9.44)" fill="#3c4d61"/>
  <rect x="234.73" y="435.89" width="9.21" height="9.21" transform="matrix(0.99, -0.16, 0.16, 0.99, -278.68, 46.3)" fill="#3c4d61"/>
  <rect x="245.21" y="434.15" width="9.21" height="9.21" transform="translate(-278.25 47.99) rotate(-9.44)" fill="#3c4d61"/>
  <rect x="255.69" y="432.4" width="9.21" height="9.21" transform="translate(-277.76 49.64) rotate(-9.44)" fill="#3c4d61"/>
  <rect x="266.17" y="430.66" width="9.21" height="9.21" transform="translate(-277.34 51.34) rotate(-9.44)" fill="#3c4d61"/>
  <rect x="226" y="448.11" width="9.21" height="9.21" transform="translate(-280.9 45.1) rotate(-9.46)" fill="#3c4d61"/>
  <rect x="236.48" y="446.37" width="9.21" height="9.21" transform="translate(-280.31 46.68) rotate(-9.44)" fill="#3c4d61"/>
  <rect x="246.96" y="444.63" width="9.21" height="9.21" transform="matrix(0.99, -0.16, 0.16, 0.99, -279.94, 48.42)" fill="#3c4d61"/>
  <rect x="257.44" y="442.88" width="9.21" height="9.21" transform="translate(-279.57 50.16) rotate(-9.45)" fill="#3c4d61"/>
  <rect x="267.91" y="441.14" width="9.21" height="9.21" transform="translate(-279.03 51.77) rotate(-9.44)" fill="#3c4d61"/>
  <path d="M282.37,263.06l-.09-.86c.07-.43.1-.75.1-.75l-.6-6.21-15.15.45-.43,5.19a3.08,3.08,0,0,0-.32,1.4V263l.56,11.28h16.62Z" transform="translate(-209.63 1.05)" fill="#73645a"/>
  <path d="M242.89,366.95h0l-1.37-1.06,0-1-7.89-.59-.14,5a4.06,4.06,0,1,0,8.11.41h0v-.09a1.52,1.52,0,0,0,1.31-2.64Z" transform="translate(-209.63 1.05)" fill="#73645a"/>
  <g id="legs">
    <path d="M270.42,349.88c-9.71,1.94-13.39,1.83-13.24,10.82l15.93,69.24c2.31,6.09,10,10.21,16.15,8s10.65-9.67,8.41-15.89c-.15-.42-13.5-60.7-13.5-60.7C282.64,353.68,280.13,347.93,270.42,349.88Z" transform="translate(-209.63 1.05)" fill="#968a79"/>
    <path d="M278.86,415.91c-7.25,4.66-6.74,10.7-4.38,16.95l47.38,48.77c3.17,3.64,6.79-.41,8.11-1.66.62-.59,3.2-.87,0-4.62-.21-.25-35.29-55.85-35.29-55.85C291.72,414.55,283.74,412.77,278.86,415.91Z" transform="translate(-209.63 1.05)" fill="#968a79"/>
    <path d="M376.9,458.19l-7.16-4.8-5.48,8.55s-1.42,5.85-2,7.8a4.28,4.28,0,0,0-.34,1.82,1.5,1.5,0,0,0,0,.37,4.29,4.29,0,0,0,4.78,3.74C368.34,475.47,376.9,458.19,376.9,458.19Z" transform="translate(-209.63 1.05)" fill="#8a7570"/>
  </g>
  <path d="M284.48,253.17" transform="translate(-209.63 1.05)" fill="#c9b8a2"/>
  <path d="M285.55,240.87c0-.06,0-.11,0-.17,0-5.11-4.7-9.29-10.66-9.63v0h-1v0c-6,.35-10.66,4.53-10.66,9.63,0,.06,0,.11,0,.17-.07,2.25.64,7.43.67,8a19.46,19.46,0,0,0,1,4.34c0,.09.84,2,.88,2.1a31.72,31.72,0,0,0,2.1,2.76c3.31,3.35,6.41,3.51,6.42,3.51h.15s3.11-.16,6.42-3.51a31.79,31.79,0,0,0,2.1-2.76c0-.09.9-2,.88-2.1a19.61,19.61,0,0,0,1-4.34C284.91,248.3,285.62,243.11,285.55,240.87Z" transform="translate(-209.63 1.05)" fill="#87776a"/>
  <circle cx="39.13" cy="279.76" r="7.35" fill="#4c695e"/>
  <circle cx="94.61" cy="282.5" r="8.79" fill="#4c695e"/>
  <circle cx="30.6" cy="320.35" r="6.4" fill="#4c695e"/>
  <polygon points="46.49 279.76 32.28 277.09 29.12 288.64 29.15 288.64 24.37 318.86 36.56 321.01 44.5 288.58 46.49 279.76" fill="#4c695e"/>
  <path d="M271.53,239.61s-2.61-1-4.48.48" transform="translate(-209.63 1.05)" fill="none" stroke="#8a7570" stroke-linecap="round" stroke-miterlimit="10" stroke-width="0.55"/>
  <path d="M277.09,239.61s2.61-1,4.48.48" transform="translate(-209.63 1.05)" fill="none" stroke="#8a7570" stroke-linecap="round" stroke-miterlimit="10" stroke-width="0.55"/>
  <path d="M270.8,253.84s2.61-1,4.48.48" transform="translate(-209.63 1.05)" fill="none" stroke="#e5b696" stroke-linecap="round" stroke-miterlimit="10" stroke-width="0.55"/>
  <circle cx="59.34" cy="243.45" r="1.44" fill="#f5f5f6"/>
  <circle cx="59.34" cy="243.45" r="0.52" fill="#1e1e1c"/>
  <circle cx="69.99" cy="243.45" r="1.44" fill="#f5f5f6"/>
  <circle cx="69.99" cy="243.45" r="0.52" fill="#1e1e1c"/>
  <path d="M276.45,248.55c-.1-.6-1.59-4.36-1.59-4.36-.15-.25-.34-.18-.46-.24h-.14c-.12.06-.31,0-.46.24,0,0-1.5,3.75-1.59,4.36s-.19,1.46,1.24,1.59a4.85,4.85,0,0,0,1.77,0C276.64,250,276.54,249.15,276.45,248.55Z" transform="translate(-209.63 1.05)" fill="#bba896"/>
  <path d="M263.94,245s-1-1.41-1.74-.56.27,2.4.48,2.87.6,2,.94,2.66.31.94,1.07,1A54.2,54.2,0,0,0,263.94,245Z" transform="translate(-209.63 1.05)" fill="#87776a"/>
  <polygon points="36.78 321.9 24.2 320.35 23.98 365.64 31.93 366.26 36.78 321.9" fill="#4c695e"/>
  <path d="M340.36,281.78h0l.56,1.64-.54.84,6.24,4.87,2.88-4.05a4,4,0,0,0,.52-.87,4.06,4.06,0,0,0-7-4h0l0,.07a1.51,1.51,0,0,0-2.55,1.47Z" transform="translate(-209.63 1.05)" fill="#73645a"/>
  <circle cx="317.49" cy="321.27" r="6.4" transform="translate(-322.79 186.08) rotate(-27.78)" fill="#4c695e"/>
  <polygon points="102.99 279 89.17 283.26 91.76 294.95 91.79 294.94 101.65 323.91 113.44 320.13 105.34 287.73 102.99 279" fill="#4c695e"/>
  <polygon points="102.22 319.25 111.83 327.5 137.13 289.94 130.86 285.02 102.22 319.25" fill="#4c695e"/>
  <path d="M308.36,273.67l-21.07-10.8v-.07l-5.15-2.35c-.39,4.8-3.08,7.26-8,7.26s-7.5-2.36-8-7.08l-5,2.17-15.66,9.32,2.44,20.38,5.58,57.85V351l.05,0v.07c0,.59-.06,1.18-.06,1.78,0,7.36,50,2.62,50,2.62l-.75-63Z" transform="translate(-209.63 1.05)" fill="#4c695e"/>
  <circle cx="94.03" cy="338.25" r="1.54" fill="none" stroke="#fff" stroke-miterlimit="10" stroke-width="0.63"/>
  <line x1="94.03" y1="339.79" x2="94.03" y2="341.75" fill="none" stroke="#fff" stroke-miterlimit="10" stroke-width="0.63"/>
  <line x1="43.05" x2="43.05" y2="336.77" fill="none" stroke="#9d9c9a" stroke-miterlimit="10" stroke-width="0.57"/>
  <circle cx="43.03" cy="338.25" r="1.54" fill="none" stroke="#fff" stroke-miterlimit="10" stroke-width="0.63"/>
  <line x1="43.03" y1="339.79" x2="43.03" y2="341.75" fill="none" stroke="#fff" stroke-miterlimit="10" stroke-width="0.63"/>
  <path d="M252.56,340.28v.12s0-.08,0-.12Z" transform="translate(-209.63 1.05)" fill="#c7c6c7" stroke="#c7c6c7" stroke-linejoin="round" stroke-width="0.61"/>
  <path d="M303.65,340.28a1.05,1.05,0,0,1,0,.12v-.12Z" transform="translate(-209.63 1.05)" fill="#c7c6c7" stroke="#c7c6c7" stroke-linejoin="round" stroke-width="0.61"/>
  <path d="M278.11,346.66c-14.11,0-25.55-2.8-25.55-6.25V354h0s0,0,0,0c0,3.46,11.44,6.25,25.55,6.25s25.55-2.8,25.55-6.25c0,0,0,0,0,0h0V340.41C303.67,343.86,292.23,346.66,278.11,346.66Z" transform="translate(-209.63 1.05)" fill="#c7c6c7" stroke="#c7c6c7" stroke-linejoin="round" stroke-width="0.61"/>
  <line x1="94.05" x2="94.05" y2="336.77" fill="none" stroke="#9d9c9a" stroke-miterlimit="10" stroke-width="0.57"/>
  <circle cx="54.02" cy="244.61" r="0.8" fill="#363129"/>
  <path d="M285.15,244.52s1-1.41,1.74-.56-.27,2.4-.48,2.87-.61,2-.94,2.66-.31.94-1.07,1A54,54,0,0,1,285.15,244.52Z" transform="translate(-209.63 1.05)" fill="#87776a"/>
  <circle cx="59.31" cy="234.01" r="2.94" fill="#363129"/>
  <circle cx="63.17" cy="231.81" r="2.94" fill="#363129"/>
  <circle cx="66.81" cy="232.47" r="2.94" fill="#363129"/>
  <circle cx="69.24" cy="231.66" r="2.94" fill="#363129"/>
  <circle cx="71.34" cy="234.23" r="2.94" fill="#363129"/>
  <circle cx="75.2" cy="236.77" r="2.94" fill="#363129"/>
  <circle cx="55.78" cy="236.55" r="2.94" fill="#363129"/>
  <circle cx="62.4" cy="234.75" r="1.75" fill="#363129"/>
  <circle cx="64.09" cy="234.82" r="1.75" fill="#363129"/>
  <circle cx="66.74" cy="234.68" r="1.75" fill="#363129"/>
  <circle cx="69.31" cy="235.26" r="1.75" fill="#363129"/>
  <circle cx="72.55" cy="236.07" r="1.75" fill="#363129"/>
  <circle cx="56.15" cy="233.42" r="1.75" fill="#363129"/>
  <circle cx="59.53" cy="230.93" r="1.75" fill="#363129"/>
  <circle cx="57.62" cy="231.73" r="1.75" fill="#363129"/>
  <circle cx="74.39" cy="232.62" r="1.75" fill="#363129"/>
  <circle cx="75.71" cy="234.09" r="1.75" fill="#363129"/>
  <circle cx="61.45" cy="229.9" r="1.75" fill="#363129"/>
  <circle cx="63.58" cy="229.68" r="1.75" fill="#363129"/>
  <circle cx="72.33" cy="231.15" r="1.75" fill="#363129"/>
  <circle cx="66.52" cy="229.75" r="1.75" fill="#363129"/>
  <circle cx="58.5" cy="236.59" r="1.75" fill="#363129"/>
  <circle cx="54.39" cy="239.22" r="2.1" fill="#363129"/>
  <circle cx="54.21" cy="241.27" r="1.58" fill="#363129"/>
  <circle cx="54.03" cy="243.21" r="1.32" fill="#363129"/>
  <circle cx="59.62" cy="229.09" r="1.32" fill="#363129"/>
  <circle cx="64.62" cy="227.92" r="1.32" fill="#363129"/>
  <circle cx="67.12" cy="228.21" r="1.32" fill="#363129"/>
  <circle cx="62.42" cy="228.29" r="1.32" fill="#363129"/>
  <circle cx="60.65" cy="228.51" r="1.32" fill="#363129"/>
  <circle cx="63.23" cy="227.92" r="1.32" fill="#363129"/>
  <circle cx="65.58" cy="227.84" r="1.32" fill="#363129"/>
  <circle cx="68.81" cy="228.14" r="1.32" fill="#363129"/>
  <circle cx="70.51" cy="228.51" r="1.32" fill="#363129"/>
  <circle cx="71.68" cy="228.95" r="1.32" fill="#363129"/>
  <circle cx="72.94" cy="229.54" r="1.32" fill="#363129"/>
  <circle cx="74.26" cy="230.49" r="1.32" fill="#363129"/>
  <circle cx="58.08" cy="229.76" r="1.32" fill="#363129"/>
  <circle cx="56.02" cy="232.26" r="1.32" fill="#363129"/>
  <circle cx="56.59" cy="230.78" r="1.32" fill="#363129"/>
  <circle cx="54.6" cy="234.09" r="1.32" fill="#363129"/>
  <circle cx="54.9" cy="232.25" r="1.32" fill="#363129"/>
  <circle cx="75.19" cy="231.74" r="1.32" fill="#363129"/>
  <circle cx="75.64" cy="239.22" r="2.1" fill="#363129"/>
  <circle cx="75.82" cy="241.27" r="1.58" fill="#363129"/>
  <circle cx="75.99" cy="243.21" r="1.32" fill="#363129"/>
  <circle cx="76.01" cy="244.61" r="0.8" fill="#363129"/>
  <path d="M283.1,303.09a5.29,5.29,0,0,0-9.43-4.79,5.18,5.18,0,0,0-.29.72h0L265,324.61h0a1.06,1.06,0,1,0,1.89,1h0l15.74-21.82h0A5.54,5.54,0,0,0,283.1,303.09Z" transform="translate(-209.63 1.05)" fill="#e48d6d"/>
  <path d="M279.52,298s5.23-4.15,13.41-10.21" transform="translate(-209.63 1.05)" fill="none" stroke="#88b57b" stroke-linecap="round" stroke-miterlimit="10" stroke-width="0.92"/>
  <path d="M279.9,297.33s3.64-4.47,10.63-11.64" transform="translate(-209.63 1.05)" fill="none" stroke="#9dca8c" stroke-linecap="round" stroke-miterlimit="10" stroke-width="0.92"/>
  <path d="M279.52,298a65.94,65.94,0,0,1,5.58-15.27" transform="translate(-209.63 1.05)" fill="none" stroke="#9dca8c" stroke-linecap="round" stroke-miterlimit="10" stroke-width="0.92"/>
  <path d="M279.28,298.17A121.94,121.94,0,0,1,289,281.51" transform="translate(-209.63 1.05)" fill="none" stroke="#88b57b" stroke-linecap="round" stroke-miterlimit="10" stroke-width="0.92"/>
  <path d="M279.52,298s.3-6.56.36-16.74" transform="translate(-209.63 1.05)" fill="none" stroke="#88b57b" stroke-linecap="round" stroke-miterlimit="10" stroke-width="0.92"/>
  <path d="M274.5,300.66a18.34,18.34,0,0,1,4.08,1.43" transform="translate(-209.63 1.05)" fill="none" stroke="#e5b696" stroke-linecap="round" stroke-miterlimit="10" stroke-width="0.92"/>
  <path d="M271.74,314.11s1,.88,1.87,1.54" transform="translate(-209.63 1.05)" fill="none" stroke="#e5b696" stroke-linecap="round" stroke-miterlimit="10" stroke-width="0.92"/>
  <path d="M267.11,319.3a4.47,4.47,0,0,1,1.33.77" transform="translate(-209.63 1.05)" fill="none" stroke="#e5b696" stroke-linecap="round" stroke-miterlimit="10" stroke-width="0.92"/>
  <path d="M276.49,306.28s1.32.77,2.21,1.43" transform="translate(-209.63 1.05)" fill="none" stroke="#e5b696" stroke-linecap="round" stroke-miterlimit="10" stroke-width="0.92"/>
  <path d="M270.86,308.6a7.94,7.94,0,0,1,1.77,1" transform="translate(-209.63 1.05)" fill="none" stroke="#e5b696" stroke-linecap="round" stroke-miterlimit="10" stroke-width="0.92"/>
  <circle cx="137.7" cy="276.34" r="7.69" fill="#a4b79d"/>
  <path d="M347.55,269.78s-.22-2.87,1.57-3.37" transform="translate(-209.63 1.05)" fill="none" stroke="#8a7570" stroke-linecap="round" stroke-miterlimit="10" stroke-width="1.27"/>
  <path d="M342.65,273.66s.21-2,1.89-2" transform="translate(-209.63 1.05)" fill="none" stroke="#d9d9d9" stroke-linecap="round" stroke-miterlimit="10" stroke-width="1.27"/>
</svg>
