<?xml version="1.0" encoding="utf-8"?>
<!--Generator: Adobe Illustrator 16.0.0, SVG Export Plug-In . SVG Version: 6.00 Build 0)-->
<!DOCTYPE svg PUBLIC "-//W3C//DTD SVG 1.1//EN" "http://www.w3.org/Graphics/SVG/1.1/DTD/svg11.dtd">
<svg version="1.1" id="Layer_1" xmlns="http://www.w3.org/2000/svg" xmlns:xlink="http://www.w3.org/1999/xlink" x="0px" y="0px" viewBox="0 0 980 540" enable-background="new 0 0 980 540" xml:space="preserve">
  <g>
    <g>
      <rect x="217.126" y="368.636" transform="matrix(0.9865 -0.1641 0.1641 0.9865 -64.3555 45.8583)" fill="#F5F5F6" stroke="#FFFFFF" stroke-width="1.3384" stroke-linecap="round" stroke-linejoin="round" stroke-miterlimit="10" width="56.663" height="87.831"/>
      <g>
        <rect x="213.795" y="374.756" transform="matrix(0.9864 -0.1642 0.1642 0.9864 -59.3122 40.9984)" fill="#3C4D61" width="9.209" height="9.207"/>
        <rect x="224.275" y="373.013" transform="matrix(0.9865 -0.164 0.164 0.9865 -58.8196 42.6398)" fill="#3C4D61" width="9.208" height="9.207"/>
        <rect x="234.754" y="371.27" transform="matrix(0.9864 -0.1642 0.1642 0.9864 -58.4555 44.3918)" fill="#3C4D61" width="9.209" height="9.207"/>
        <rect x="245.234" y="369.523" transform="matrix(0.9864 -0.1644 0.1644 0.9864 -58.1127 46.1688)" fill="#3C4D61" width="9.206" height="9.21"/>
        <rect x="255.713" y="367.782" transform="matrix(0.9864 -0.1642 0.1642 0.9864 -57.6045 47.7906)" fill="#3C4D61" width="9.208" height="9.208"/>
        <rect x="215.538" y="385.233" transform="matrix(0.9864 -0.1641 0.1641 0.9864 -60.9843 41.4069)" fill="#3C4D61" width="9.207" height="9.209"/>
        <rect x="226.018" y="383.491" transform="matrix(0.9864 -0.1641 0.1641 0.9864 -60.5503 43.098)" fill="#3C4D61" width="9.208" height="9.209"/>
        <rect x="236.498" y="381.749" transform="matrix(0.9865 -0.164 0.164 0.9865 -60.0926 44.7674)" fill="#3C4D61" width="9.207" height="9.207"/>
        <rect x="246.976" y="380.006" transform="matrix(0.9864 -0.1642 0.1642 0.9864 -59.7357 46.5273)" fill="#3C4D61" width="9.207" height="9.207"/>
        <rect x="257.457" y="378.264" transform="matrix(0.9864 -0.1642 0.1642 0.9864 -59.3073 48.2245)" fill="#3C4D61" width="9.207" height="9.207"/>
        <rect x="217.28" y="395.717" transform="matrix(0.9865 -0.1641 0.1641 0.9865 -62.6681 41.8251)" fill="#3C4D61" width="9.209" height="9.205"/>
        <rect x="227.76" y="393.972" transform="matrix(0.9865 -0.164 0.164 0.9865 -62.209 43.495)" fill="#3C4D61" width="9.208" height="9.207"/>
        <rect x="238.24" y="392.23" transform="matrix(0.9865 -0.164 0.164 0.9865 -61.7816 45.1898)" fill="#3C4D61" width="9.208" height="9.207"/>
        <rect x="248.72" y="390.486" transform="matrix(0.9864 -0.1642 0.1642 0.9864 -61.4266 46.9504)" fill="#3C4D61" width="9.208" height="9.205"/>
        <rect x="259.2" y="388.741" transform="matrix(0.9864 -0.1641 0.1641 0.9864 -60.9741 48.6246)" fill="#3C4D61" width="9.206" height="9.209"/>
        <rect x="219.024" y="406.195" transform="matrix(0.9865 -0.164 0.164 0.9865 -64.338 42.2328)" fill="#3C4D61" width="9.207" height="9.207"/>
        <rect x="229.503" y="404.453" transform="matrix(0.9865 -0.1641 0.1641 0.9865 -63.9358 43.9486)" fill="#3C4D61" width="9.209" height="9.206"/>
        <rect x="239.984" y="402.71" transform="matrix(0.9864 -0.1641 0.1641 0.9864 -63.5267 45.6604)" fill="#3C4D61" width="9.206" height="9.206"/>
        <rect x="250.463" y="400.965" transform="matrix(0.9864 -0.1641 0.1641 0.9864 -63.0923 47.3509)" fill="#3C4D61" width="9.207" height="9.207"/>
        <rect x="260.942" y="399.224" transform="matrix(0.9865 -0.164 0.164 0.9865 -62.6149 49.0013)" fill="#3C4D61" width="9.209" height="9.207"/>
        <rect x="220.768" y="416.674" transform="matrix(0.9864 -0.1642 0.1642 0.9864 -66.112 42.7217)" fill="#3C4D61" width="9.207" height="9.208"/>
        <rect x="231.246" y="414.93" transform="matrix(0.9864 -0.1642 0.1642 0.9864 -65.6834 44.4185)" fill="#3C4D61" width="9.207" height="9.208"/>
        <rect x="241.726" y="413.187" transform="matrix(0.9865 -0.164 0.164 0.9865 -65.1708 46.045)" fill="#3C4D61" width="9.208" height="9.207"/>
        <rect x="252.206" y="411.445" transform="matrix(0.9865 -0.164 0.164 0.9865 -64.7369 47.7343)" fill="#3C4D61" width="9.209" height="9.207"/>
        <rect x="262.686" y="409.703" transform="matrix(0.9865 -0.1639 0.1639 0.9865 -64.2839 49.4056)" fill="#3C4D61" width="9.207" height="9.207"/>
        <rect x="222.51" y="427.154" transform="matrix(0.9865 -0.164 0.164 0.9865 -67.7209 43.0832)" fill="#3C4D61" width="9.208" height="9.207"/>
        <rect x="232.989" y="425.411" transform="matrix(0.9865 -0.164 0.164 0.9865 -67.2934 44.778)" fill="#3C4D61" width="9.208" height="9.207"/>
        <rect x="243.469" y="423.667" transform="matrix(0.9864 -0.1642 0.1642 0.9864 -66.9522 46.5441)" fill="#3C4D61" width="9.207" height="9.209"/>
        <rect x="253.948" y="421.924" transform="matrix(0.9864 -0.1642 0.1642 0.9864 -66.5172 48.2354)" fill="#3C4D61" width="9.208" height="9.209"/>
        <rect x="264.429" y="420.182" transform="matrix(0.9864 -0.1643 0.1643 0.9864 -66.128 49.9675)" fill="#3C4D61" width="9.208" height="9.206"/>
        <rect x="224.253" y="437.634" transform="matrix(0.9865 -0.164 0.164 0.9865 -69.4158 43.5108)" fill="#3C4D61" width="9.208" height="9.208"/>
        <rect x="234.733" y="435.889" transform="matrix(0.9864 -0.1641 0.1641 0.9864 -69.0432 45.2486)" fill="#3C4D61" width="9.206" height="9.21"/>
        <rect x="245.213" y="434.149" transform="matrix(0.9864 -0.1641 0.1641 0.9864 -68.6083 46.9392)" fill="#3C4D61" width="9.207" height="9.205"/>
        <rect x="255.692" y="432.404" transform="matrix(0.9865 -0.164 0.164 0.9865 -68.126 48.5895)" fill="#3C4D61" width="9.209" height="9.207"/>
        <rect x="266.173" y="430.661" transform="matrix(0.9865 -0.164 0.164 0.9865 -67.7052 50.2901)" fill="#3C4D61" width="9.208" height="9.208"/>
        <rect x="225.996" y="448.113" transform="matrix(0.9864 -0.1643 0.1643 0.9864 -71.2602 44.0488)" fill="#3C4D61" width="9.205" height="9.209"/>
        <rect x="236.475" y="446.371" transform="matrix(0.9865 -0.164 0.164 0.9865 -70.6759 45.6279)" fill="#3C4D61" width="9.209" height="9.207"/>
        <rect x="246.956" y="444.629" transform="matrix(0.9864 -0.1641 0.1641 0.9864 -70.3113 47.3729)" fill="#3C4D61" width="9.206" height="9.206"/>
        <rect x="257.435" y="442.884" transform="matrix(0.9864 -0.1642 0.1642 0.9864 -69.9318 49.1093)" fill="#3C4D61" width="9.205" height="9.208"/>
        <rect x="267.914" y="441.143" transform="matrix(0.9865 -0.164 0.164 0.9865 -69.3933 50.7116)" fill="#3C4D61" width="9.209" height="9.207"/>
      </g>
    </g>
    <g id="been">
      <path fill="#73645A" d="M282.369,263.06l-0.092-0.859c0.069-0.43,0.1-0.75,0.1-0.75l-0.602-6.207l-15.146,0.452l-0.428,5.187
			c0,0-0.418,0.886-0.316,1.4l0.009,0.766l0.556,11.275h16.624L282.369,263.06z"/>
      <path fill="#73645A" d="M242.886,366.948L242.886,366.948l-1.372-1.059l-0.017-1.001l-7.893-0.588l-0.145,4.965
			c-0.023,0.332-0.012,0.67,0.051,1.012c0.399,2.21,2.513,3.677,4.721,3.278c1.928-0.348,3.289-2.002,3.34-3.885h0.004l-0.002-0.086
			c0.648,0.145,1.339-0.144,1.668-0.755C243.591,368.185,243.423,367.403,242.886,366.948z"/>
      <path fill="#968A79" d="M270.418,349.879c-9.713,1.943-13.394,1.825-13.243,10.817l15.93,69.236
			c2.314,6.085,9.999,10.212,16.154,7.997c6.224-2.24,10.654-9.669,8.414-15.892c-0.152-0.422-13.498-60.697-13.498-60.697
			C282.641,353.679,280.133,347.933,270.418,349.879z"/>
      <path fill="#968A79" d="M278.857,415.906c-7.245,4.664-6.742,10.7-4.379,16.947l47.38,48.768c3.167,3.638,6.794-0.41,8.114-1.657
			c0.623-0.591,3.195-0.867,0.047-4.617c-0.213-0.253-35.295-55.848-35.295-55.848C291.716,414.555,283.736,412.767,278.857,415.906z
			"/>
    </g>
    <path fill="#8A7570" d="M335.507,480.798l-6.011-6.187l-7.139,7.235c0,0-2.599,5.428-3.563,7.212
		c-0.35,0.501-0.596,1.08-0.705,1.714c-0.056,0.245-0.051,0.362-0.051,0.362c-0.207,2.359,1.539,4.44,3.898,4.647
		C323.554,495.923,335.507,480.798,335.507,480.798z"/>
    <path fill="#968A79" d="M286.092,343.604c-9.101,3.916-12.727,4.563-10.716,13.328l29.931,64.432
		c3.526,5.477,11.899,7.92,17.463,4.476c5.624-3.482,8.417-11.665,4.937-17.288c-0.235-0.383-25.781-56.583-25.781-56.583
		C298.835,344.788,295.191,339.689,286.092,343.604z"/>
    <path fill="#968A79" d="M308.03,406.448c-6.122,6.066-4.379,11.868-0.774,17.49l56.458,37.891c3.853,2.901,6.563-1.812,7.595-3.305
		c0.489-0.705,2.946-1.511-0.909-4.525c-0.263-0.204-46.104-47.322-46.104-47.322C320.329,402.464,312.152,402.367,308.03,406.448z"/>
    <g opacity="0.4"/>
    <path fill="#8A7570" d="M376.896,458.193l-7.162-4.805l-5.483,8.555c0,0-1.419,5.85-1.992,7.796
		c-0.237,0.562-0.358,1.179-0.336,1.819c-0.004,0.255,0.026,0.367,0.026,0.367c0.288,2.353,2.426,4.026,4.777,3.738
		C368.337,475.468,376.896,458.193,376.896,458.193z"/>
    <path fill="#C9B8A2" d="M284.476,253.165"/>
    <path fill="#87776A" d="M285.546,240.867c0.001-0.058,0.002-0.114,0.002-0.17c0-5.107-4.704-9.285-10.662-9.633l-0.001-0.025
		c-0.073,0-0.146,0.002-0.219,0.006v-0.006c-0.098,0-0.194,0.005-0.291,0.007c-0.097-0.002-0.192-0.007-0.292-0.007v0.006
		c-0.072-0.004-0.145-0.006-0.219-0.006v0.025c-5.957,0.348-10.661,4.525-10.661,9.633c0,0.056,0.001,0.112,0.001,0.17
		c-0.073,2.247,0.637,7.432,0.674,8.016c0.03,0.5,0.252,2.023,1.024,4.338c-0.013,0.094,0.837,2.01,0.882,2.097
		c0.553,1.023,1.949,2.468,2.098,2.758c3.309,3.347,6.408,3.509,6.418,3.509h0.149c0.013,0,3.111-0.162,6.421-3.509
		c0.146-0.29,1.545-1.734,2.096-2.758c0.047-0.087,0.896-2.003,0.883-2.097c0.771-2.314,0.994-3.838,1.025-4.338
		C284.911,248.299,285.621,243.114,285.546,240.867z"/>
    <circle fill="#4C695E" cx="248.768" cy="278.704" r="7.354"/>
    <path fill="#4C695E" d="M295.454,281.447c0,4.854,3.937,8.79,8.793,8.79s8.792-3.937,8.792-8.79c0-4.858-3.936-8.796-8.792-8.796
		S295.454,276.589,295.454,281.447z"/>
    <circle fill="#4C695E" cx="240.235" cy="319.3" r="6.398"/>
    <polygon fill="#4C695E" points="256.123,278.704 241.916,276.034 238.751,287.586 238.781,287.586 234.003,317.811 
		246.192,319.962 254.134,287.528 	"/>
    <path fill="none" stroke="#8A7570" stroke-width="0.5494" stroke-linecap="round" stroke-miterlimit="10" d="M271.535,239.612
		c0,0-2.605-1.007-4.481,0.482"/>
    <path fill="none" stroke="#8A7570" stroke-width="0.5494" stroke-linecap="round" stroke-miterlimit="10" d="M277.092,239.612
		c0,0,2.606-1.007,4.481,0.482"/>
    <path fill="none" stroke="#E5B696" stroke-width="0.5494" stroke-linecap="round" stroke-miterlimit="10" d="M270.804,253.842
		c0,0,2.606-1.006,4.482,0.484"/>
    <g>
      <circle fill="#F5F5F6" cx="268.978" cy="242.4" r="1.445"/>
      <circle fill="#1E1E1C" cx="268.978" cy="242.4" r="0.524"/>
    </g>
    <g>
      <circle fill="#F5F5F6" cx="279.623" cy="242.4" r="1.445"/>
      <circle fill="#1E1E1C" cx="279.623" cy="242.4" r="0.524"/>
    </g>
    <path fill="#BBA896" d="M276.448,248.55c-0.096-0.604-1.593-4.358-1.593-4.358c-0.151-0.248-0.335-0.178-0.461-0.236h-0.143
		c-0.125,0.059-0.31-0.012-0.461,0.236c0,0-1.496,3.754-1.592,4.358c-0.095,0.604-0.191,1.463,1.242,1.591
		c0,0,0.569,0.139,0.883,0.081c0.312,0.058,0.883-0.081,0.883-0.081C276.638,250.013,276.543,249.154,276.448,248.55z"/>
    <path fill="#87776A" d="M263.941,245.016c0,0-0.996-1.405-1.736-0.557c-0.741,0.851,0.267,2.396,0.482,2.872
		c0.217,0.478,0.604,1.965,0.938,2.657c0.336,0.693,0.312,0.942,1.073,1.013C264.698,251.001,264.255,245.732,263.941,245.016z"/>
    <polygon fill="#4C695E" points="246.414,320.844 233.837,319.3 233.616,364.59 241.56,365.206 	"/>
    <path fill="#73645A" d="M340.359,281.78h-0.002l0.556,1.643l-0.54,0.842l6.24,4.867l2.875-4.052
		c0.203-0.264,0.381-0.55,0.518-0.868c0.895-2.063-0.053-4.459-2.109-5.35c-1.799-0.778-3.85-0.158-4.936,1.383l-0.002-0.003
		l-0.047,0.072c-0.459-0.479-1.191-0.621-1.805-0.296C340.458,280.359,340.161,281.105,340.359,281.78z"/>
    <circle fill="#4C695E" cx="317.492" cy="321.27" r="6.398"/>
    <polygon fill="#4C695E" points="312.624,277.948 298.81,282.208 301.396,293.902 301.421,293.89 311.284,322.855 323.07,319.078 
		314.978,286.682 	"/>
    <polygon fill="#4C695E" points="311.859,318.194 321.467,326.45 346.763,288.883 340.498,283.967 	"/>
    <path fill="#4C695E" d="M308.361,273.672l-21.07-10.803l0.01-0.065l-5.153-2.354c-0.386,4.804-3.075,7.26-7.979,7.26
		c-4.84,0-7.495-2.359-7.968-7.076l-5.049,2.171l-15.658,9.318l2.438,20.385l5.576,57.848l0.009,0.622c0,0,0.019,0.011,0.054,0.024
		l0.008,0.073c-0.036,0.589-0.062,1.185-0.062,1.784c0,7.36,50.038,2.624,50.038,2.624l-0.747-62.976L308.361,273.672z"/>
    <g>
      <circle fill="none" stroke="#FFFFFF" stroke-width="0.6254" stroke-miterlimit="10" cx="303.663" cy="337.201" r="1.538"/>
      <line fill="none" stroke="#FFFFFF" stroke-width="0.6254" stroke-miterlimit="10" x1="303.664" y1="338.739" x2="303.664" y2="340.694"/>
    </g>
    <line fill="none" stroke="#9D9C9A" stroke-width="0.5669" stroke-miterlimit="10" x1="252.685" y1="-1.053" x2="252.685" y2="335.717"/>
    <g>
      <circle fill="none" stroke="#FFFFFF" stroke-width="0.6254" stroke-miterlimit="10" cx="252.664" cy="337.201" r="1.537"/>
      <line fill="none" stroke="#FFFFFF" stroke-width="0.6254" stroke-miterlimit="10" x1="252.664" y1="338.739" x2="252.664" y2="340.694"/>
    </g>
    <g>
      <path fill="#C7C6C7" stroke="#C7C6C7" stroke-width="0.6148" stroke-linejoin="round" stroke-miterlimit="10" d="M252.564,340.284
			v0.122c0-0.04,0.011-0.081,0.012-0.122H252.564z"/>
      <path fill="#C7C6C7" stroke="#C7C6C7" stroke-width="0.6148" stroke-linejoin="round" stroke-miterlimit="10" d="M303.653,340.284
			c0.005,0.041,0.013,0.082,0.013,0.122v-0.122H303.653z"/>
      <path fill="#C7C6C7" stroke="#C7C6C7" stroke-width="0.6148" stroke-linejoin="round" stroke-miterlimit="10" d="M278.115,346.66
			c-14.111,0-25.551-2.801-25.551-6.254v13.61h0.004c0,0.015-0.004,0.026-0.004,0.04c0,3.455,11.439,6.254,25.551,6.254
			s25.551-2.799,25.551-6.254c0-0.014-0.004-0.025-0.004-0.04h0.004v-13.61C303.666,343.859,292.226,346.66,278.115,346.66z"/>
    </g>
    <line fill="none" stroke="#9D9C9A" stroke-width="0.5669" stroke-miterlimit="10" x1="303.685" y1="-1.053" x2="303.685" y2="335.717"/>
    <circle fill="#363129" cx="263.653" cy="243.561" r="0.8"/>
    <path fill="#87776A" d="M285.147,244.518c0,0,0.996-1.405,1.735-0.557c0.741,0.85-0.266,2.396-0.481,2.872
		c-0.218,0.477-0.606,1.965-0.938,2.657c-0.335,0.693-0.312,0.942-1.072,1.013C284.39,250.503,284.832,245.234,285.147,244.518z"/>
    <g>
      <circle fill="#363129" cx="268.948" cy="232.961" r="2.942"/>
      <circle fill="#363129" cx="272.81" cy="230.754" r="2.941"/>
      <circle fill="#363129" cx="276.45" cy="231.416" r="2.941"/>
      <circle fill="#363129" cx="278.877" cy="230.606" r="2.941"/>
      <circle fill="#363129" cx="280.972" cy="233.181" r="2.941"/>
      <circle fill="#363129" cx="284.833" cy="235.718" r="2.942"/>
      <circle fill="#363129" cx="265.418" cy="235.498" r="2.942"/>
      <circle fill="#363129" cx="272.037" cy="233.695" r="1.746"/>
      <circle fill="#363129" cx="273.728" cy="233.77" r="1.746"/>
      <circle fill="#363129" cx="276.376" cy="233.623" r="1.747"/>
      <circle fill="#363129" cx="278.95" cy="234.211" r="1.746"/>
      <circle fill="#363129" cx="282.186" cy="235.02" r="1.747"/>
      <path fill="#363129" d="M267.533,232.371c0,0.967-0.781,1.748-1.748,1.748c-0.965,0-1.746-0.781-1.746-1.748
			c0-0.962,0.781-1.744,1.746-1.744C266.751,230.627,267.533,231.409,267.533,232.371z"/>
      <circle fill="#363129" cx="269.169" cy="229.873" r="1.747"/>
      <path fill="#363129" d="M269.001,230.681c0,0.966-0.781,1.749-1.744,1.749c-0.965,0-1.747-0.783-1.747-1.749
			c0-0.963,0.782-1.745,1.747-1.745C268.22,228.936,269.001,229.718,269.001,230.681z"/>
      <circle fill="#363129" cx="284.023" cy="231.562" r="1.747"/>
      <circle fill="#363129" cx="285.347" cy="233.035" r="1.746"/>
      <circle fill="#363129" cx="271.08" cy="228.843" r="1.746"/>
      <circle fill="#363129" cx="273.212" cy="228.623" r="1.746"/>
      <circle fill="#363129" cx="281.964" cy="230.094" r="1.746"/>
      <circle fill="#363129" cx="276.155" cy="228.697" r="1.746"/>
      <circle fill="#363129" cx="268.138" cy="235.534" r="1.746"/>
      <circle fill="#363129" cx="264.02" cy="238.17" r="2.101"/>
      <circle fill="#363129" cx="263.844" cy="240.215" r="1.582"/>
      <path fill="#363129" d="M264.983,242.161c0,0.728-0.591,1.316-1.316,1.316s-1.315-0.589-1.315-1.316
			c0-0.724,0.59-1.316,1.315-1.316S264.983,241.438,264.983,242.161z"/>
      <circle fill="#363129" cx="269.255" cy="228.041" r="1.316"/>
      <circle fill="#363129" cx="274.257" cy="226.864" r="1.316"/>
      <circle fill="#363129" cx="276.758" cy="227.158" r="1.316"/>
      <circle fill="#363129" cx="272.051" cy="227.232" r="1.316"/>
      <circle fill="#363129" cx="270.285" cy="227.453" r="1.316"/>
      <circle fill="#363129" cx="272.86" cy="226.864" r="1.317"/>
      <circle fill="#363129" cx="275.214" cy="226.791" r="1.316"/>
      <circle fill="#363129" cx="278.449" cy="227.086" r="1.316"/>
      <circle fill="#363129" cx="280.141" cy="227.453" r="1.316"/>
      <circle fill="#363129" cx="281.317" cy="227.894" r="1.316"/>
      <circle fill="#363129" cx="282.576" cy="228.491" r="1.316"/>
      <path fill="#363129" d="M285.208,229.437c0,0.729-0.59,1.317-1.316,1.317c-0.728,0-1.316-0.589-1.316-1.317
			c0-0.724,0.589-1.312,1.316-1.312C284.619,228.124,285.208,228.713,285.208,229.437z"/>
      <path fill="#363129" d="M269.029,228.702c0,0.727-0.59,1.315-1.315,1.315c-0.728,0-1.317-0.589-1.317-1.315
			c0-0.724,0.59-1.314,1.317-1.314C268.439,227.388,269.029,227.979,269.029,228.702z"/>
      <path fill="#363129" d="M266.97,231.202c0,0.729-0.59,1.317-1.316,1.317s-1.316-0.589-1.316-1.317c0-0.724,0.59-1.314,1.316-1.314
			S266.97,230.479,266.97,231.202z"/>
      <circle fill="#363129" cx="266.223" cy="229.73" r="1.316"/>
      <circle fill="#363129" cx="264.238" cy="233.04" r="1.316"/>
      <circle fill="#363129" cx="264.532" cy="231.202" r="1.316"/>
      <circle fill="#363129" cx="284.83" cy="230.687" r="1.316"/>
      <circle fill="#363129" cx="285.273" cy="238.17" r="2.102"/>
      <circle fill="#363129" cx="285.45" cy="240.215" r="1.582"/>
      <path fill="#363129" d="M284.31,242.161c0,0.728,0.59,1.316,1.316,1.316s1.316-0.589,1.316-1.316c0-0.724-0.59-1.316-1.316-1.316
			S284.31,241.438,284.31,242.161z"/>
    </g>
    <circle fill="#363129" cx="285.641" cy="243.561" r="0.8"/>
    <g>
      <g>
        <path fill="#E48D6D" d="M283.101,303.089c1.321-2.603,0.281-5.788-2.322-7.107c-2.604-1.324-5.785-0.282-7.107,2.321
				c-0.119,0.233-0.214,0.475-0.295,0.717l-0.006-0.003l-8.324,25.589l0.016,0.007c-0.002,0.005-0.006,0.01-0.008,0.015
				c-0.266,0.521-0.057,1.159,0.465,1.425c0.521,0.264,1.16,0.056,1.424-0.467c0.004-0.006,0.004-0.009,0.006-0.015l0.008,0.004
				l15.743-21.823h-0.005C282.842,303.541,282.982,303.322,283.101,303.089z"/>
        <path fill="none" stroke="#88B57B" stroke-width="0.9219" stroke-linecap="round" stroke-miterlimit="10" d="M279.515,298.01
				c0,0,5.229-4.151,13.41-10.209"/>
        <path fill="none" stroke="#9DCA8C" stroke-width="0.9219" stroke-linecap="round" stroke-miterlimit="10" d="M279.9,297.332
				c0,0,3.641-4.47,10.631-11.638"/>
        <path fill="none" stroke="#9DCA8C" stroke-width="0.9219" stroke-linecap="round" stroke-miterlimit="10" d="M279.515,298.01
				c0,0,1.857-8.507,5.584-15.274"/>
        <path fill="none" stroke="#88B57B" stroke-width="0.9219" stroke-linecap="round" stroke-miterlimit="10" d="M279.276,298.168
				c0,0,3.871-8.333,9.731-16.658"/>
        <path fill="none" stroke="#88B57B" stroke-width="0.9219" stroke-linecap="round" stroke-miterlimit="10" d="M279.515,298.01
				c0,0,0.301-6.561,0.363-16.742"/>
      </g>
      <path fill="none" stroke="#E5B696" stroke-width="0.9219" stroke-linecap="round" stroke-miterlimit="10" d="M274.5,300.656
			c0,0,3.2,0.774,4.081,1.434"/>
      <path fill="none" stroke="#E5B696" stroke-width="0.9219" stroke-linecap="round" stroke-miterlimit="10" d="M271.743,314.113
			c0,0,0.991,0.883,1.874,1.545"/>
      <path fill="none" stroke="#E5B696" stroke-width="0.9219" stroke-linecap="round" stroke-miterlimit="10" d="M267.109,319.3
			c0,0,0.44,0.11,1.325,0.771"/>
      <path fill="none" stroke="#E5B696" stroke-width="0.9219" stroke-linecap="round" stroke-miterlimit="10" d="M276.486,306.282
			c0,0,1.324,0.772,2.205,1.435"/>
      <path fill="none" stroke="#E5B696" stroke-width="0.9219" stroke-linecap="round" stroke-miterlimit="10" d="M270.859,308.599
			c0,0,0.884,0.331,1.766,0.993"/>
    </g>
    <g>
      <path fill="#A4B79D" d="M355.017,275.291c0,4.248-3.441,7.688-7.687,7.688c-4.246,0-7.688-3.44-7.688-7.688
			c0-4.242,3.441-7.686,7.688-7.686C351.576,267.605,355.017,271.049,355.017,275.291z"/>
      <path fill="none" stroke="#8A7570" stroke-width="1.2735" stroke-linecap="round" stroke-miterlimit="10" d="M347.554,269.778
			c0,0-0.224-2.868,1.573-3.372"/>
      <path fill="none" stroke="#D9D9D9" stroke-width="1.2735" stroke-linecap="round" stroke-miterlimit="10" d="M342.653,273.656
			c0,0,0.214-1.983,1.89-2.037"/>
    </g>
  </g>
</svg>
