<svg version="1.1" id="Layer_1" xmlns="http://www.w3.org/2000/svg" xmlns:xlink="http://www.w3.org/1999/xlink" x="0px" y="0px" width="980px" height="540px" viewBox="0 0 980 540" enable-background="new 0 0 980 540" xml:space="preserve">
  <g>
    <path fill="#1E1E1C" d="M739.604,482.851l-6.01-6.187l-7.138,7.235c0,0-2.601,5.428-3.563,7.212
		c-0.35,0.501-0.596,1.08-0.706,1.714c-0.056,0.245-0.051,0.362-0.051,0.362c-0.206,2.359,1.54,4.44,3.899,4.647
		C727.651,497.976,739.604,482.851,739.604,482.851z"/>
    <g>
      <path fill="#D6C6C1" d="M598.676,324.649L598.676,324.649l1.229-1.224l0.996,0.116l1.612-7.749L597.609,315
			c-0.326-0.066-0.662-0.098-1.01-0.08c-2.244,0.105-3.974,2.011-3.866,4.252c0.093,1.957,1.555,3.523,3.415,3.821l0,0l0.086,0.01
			c-0.229,0.624-0.033,1.347,0.529,1.755C597.357,325.186,598.156,325.124,598.676,324.649z"/>
      <rect x="752.331" y="284.25" transform="matrix(0.9997 -0.0264 0.0264 0.9997 -8.0447 20.8973)" fill="#FFFFFF" width="71.684" height="62.326"/>
      <path fill="#3D3D3B" d="M708.123,357.535l-0.747-62.976l5.554-18.835l-21.199-10.868h-26.01l-15.658,9.318l2.438,20.385
			l5.645,58.567c-0.036,0.589-0.061,1.185-0.061,1.784C658.085,362.271,708.123,357.535,708.123,357.535z"/>
      <path fill="#3D3D3B" d="M674.988,351.932c-9.713,1.943-13.395,1.825-13.243,10.817l15.928,69.236
			c2.315,6.085,10.001,10.212,16.156,7.997c6.223-2.24,10.651-9.669,8.412-15.892c-0.151-0.422-13.497-60.697-13.497-60.697
			C687.209,355.731,684.703,349.985,674.988,351.932z"/>
      <path fill="#3D3D3B" d="M683.427,417.959c-7.247,4.664-6.743,10.7-4.384,16.947l47.383,48.768c3.168,3.638,6.795-0.41,8.115-1.657
			c0.625-0.591,3.194-0.867,0.046-4.617c-0.213-0.253-35.294-55.848-35.294-55.848C696.285,416.607,688.305,414.819,683.427,417.959
			z"/>
      <path fill="#3D3D3B" d="M690.66,345.656c-9.1,3.916-12.725,4.563-10.714,13.328l29.931,64.432
			c3.525,5.477,11.898,7.92,17.461,4.476c5.624-3.482,8.418-11.665,4.938-17.288c-0.236-0.383-25.783-56.583-25.783-56.583
			C703.403,346.841,699.762,341.742,690.66,345.656z"/>
      <path fill="#3D3D3B" d="M712.599,408.501c-6.122,6.066-4.38,11.868-0.774,17.49l56.46,37.891c3.851,2.901,6.561-1.812,7.593-3.305
			c0.488-0.705,2.946-1.511-0.911-4.525c-0.261-0.204-46.101-47.322-46.101-47.322C724.896,404.517,716.72,404.42,712.599,408.501z"/>
      </g>
      <path fill="#1E1E1C" d="M781.464,460.246l-7.161-4.805l-5.484,8.555c0,0-1.417,5.85-1.991,7.796
			c-0.238,0.562-0.358,1.179-0.335,1.819c-0.003,0.255,0.024,0.367,0.024,0.367c0.288,2.353,2.426,4.026,4.777,3.738
			C772.904,477.521,781.464,460.246,781.464,460.246z"/>
      <circle fill="#3D3D3B" cx="653.336" cy="280.757" r="7.354"/>
      <path fill="#3D3D3B" d="M700.022,283.5c0,4.854,3.936,8.79,8.791,8.79c4.858,0,8.794-3.937,8.794-8.79
			c0-4.858-3.936-8.796-8.794-8.796C703.958,274.704,700.022,278.642,700.022,283.5z"/>
      <circle fill="#3D3D3B" cx="644.804" cy="321.353" r="6.398"/>
      <polygon fill="#3D3D3B" points="660.69,280.757 646.484,278.087 643.321,289.639 643.35,289.639 638.571,319.863 650.761,322.015 
			658.704,289.581 		"/>
      <polyline fill="#868686" points="693.145,277.277 683.804,275.146 681.715,276.287 		"/>
      <polygon fill="#3D3D3B" points="644.805,327.796 646.158,315.198 600.867,315.664 600.372,323.616 		"/>
      <path fill="#D6C6C1" d="M744.928,283.833h-0.002l0.556,1.643l-0.542,0.842l6.242,4.867l2.874-4.052
			c0.204-0.264,0.382-0.55,0.519-0.868c0.895-2.063-0.052-4.459-2.111-5.35c-1.796-0.778-3.848-0.158-4.935,1.383l-0.001-0.003
			l-0.047,0.072c-0.459-0.479-1.193-0.621-1.807-0.296C745.026,282.412,744.729,283.158,744.928,283.833z"/>
      <circle fill="#3D3D3B" cx="722.061" cy="323.322" r="6.398"/>
      <polygon fill="#3D3D3B" points="717.191,280.001 703.379,284.261 705.965,295.955 705.99,295.942 715.853,324.908 727.64,321.131 
			719.547,288.734 		"/>
      <polygon fill="#3D3D3B" points="716.427,320.247 726.036,328.503 751.333,290.936 745.066,286.02 		"/>
      <path fill="#3D3D3B" d="M658.085,353.029c0,0,15.712,7.198,49.249-0.21l-0.754-12.592l-48.648,1.753L658.085,353.029z"/>
      <line fill="none" stroke="#9D9C9A" stroke-width="0.5669" stroke-miterlimit="10" x1="708.255" y1="1" x2="708.255" y2="337.77"/>
      <polygon fill="#EDEDED" points="663.733,277.184 679.884,348.27 681.654,348.355 692.155,264.872 665.974,265.166 		"/>
      <polygon fill="#1E1E1C" points="695.36,268.276 700.943,280.278 697.174,282.686 702.198,286.069 699.407,294.56 682.942,340.863 
			691.73,264.856 		"/>
      <polygon fill="#1E1E1C" points="662.078,268.276 656.496,280.278 660.264,282.686 655.239,286.069 658.031,294.56 
			678.117,340.767 665.706,264.856 		"/>
      <line fill="none" stroke="#9D9C9B" stroke-width="2.5016" stroke-linecap="round" stroke-miterlimit="10" x1="822.473" y1="283.428" x2="749.99" y2="285.339"/>
      <g>
        <circle fill="none" stroke="#FFFFFF" stroke-width="0.6254" stroke-miterlimit="10" cx="708.231" cy="339.254" r="1.538"/>
        <line fill="none" stroke="#FFFFFF" stroke-width="0.6254" stroke-miterlimit="10" x1="708.232" y1="340.792" x2="708.232" y2="342.747"/>
      </g>
      <line fill="none" stroke="#9D9C9A" stroke-width="0.5669" stroke-miterlimit="10" x1="657.254" y1="1" x2="657.254" y2="337.77"/>
      <g>
        <circle fill="none" stroke="#FFFFFF" stroke-width="0.6254" stroke-miterlimit="10" cx="657.232" cy="339.254" r="1.539"/>
        <line fill="none" stroke="#FFFFFF" stroke-width="0.6254" stroke-miterlimit="10" x1="657.232" y1="340.792" x2="657.232" y2="342.747"/>
      </g>
      <g>
        <path fill="#C7C6C7" stroke="#C7C6C7" stroke-width="0.6148" stroke-linejoin="round" stroke-miterlimit="10" d="
				M657.131,342.337v0.122c0-0.04,0.012-0.081,0.014-0.122H657.131z"/>
        <path fill="#C7C6C7" stroke="#C7C6C7" stroke-width="0.6148" stroke-linejoin="round" stroke-miterlimit="10" d="
				M708.223,342.337c0.002,0.041,0.013,0.082,0.013,0.122v-0.122H708.223z"/>
        <path fill="#C7C6C7" stroke="#C7C6C7" stroke-width="0.6148" stroke-linejoin="round" stroke-miterlimit="10" d="
				M682.684,348.713c-14.111,0-25.553-2.801-25.553-6.254v13.61h0.006c0,0.015-0.006,0.026-0.006,0.04
				c0,3.455,11.441,6.254,25.553,6.254c14.113,0,25.552-2.799,25.552-6.254c0-0.014-0.004-0.025-0.005-0.04h0.005v-13.61
				C708.235,345.912,696.797,348.713,682.684,348.713z"/>
      </g>
      <rect x="669.707" y="251.17" fill="#C3B5B2" width="18.438" height="19.636"/>
      <path fill="#D6C6C1" d="M679.287,227.637v-0.023l-0.006,0.005c-0.066,0.004-0.133,0.007-0.199,0.01
			c-0.066-0.003-0.132-0.006-0.199-0.01l-0.005-0.005l-0.001,0.023c-6.205,0.33-11.139,5.461-11.139,11.747
			c0,0.926,0.111,1.828,0.314,2.692c0.246,2.801,0.881,7.853,2.501,14.33c0,0,2.475,5.298,8.103,6.524l0.419,0.034
			c0.073,0.003,0.434-0.034,0.434-0.034c5.628-1.227,8.101-6.524,8.101-6.524c1.621-6.478,2.255-11.529,2.502-14.33
			c0.202-0.864,0.313-1.767,0.313-2.692C690.425,233.098,685.492,227.967,679.287,227.637z"/>
      <path fill="#D6C6C1" d="M692.166,242.137c0,0-0.569,2.61-0.808,4.366c-0.236,1.756-1.091,3.368-2.278,2.895l1.031-7.321
			C690.111,242.076,691.787,240.429,692.166,242.137z"/>
      <path fill="none" stroke="#3D3D3B" stroke-width="0.5381" stroke-linecap="round" stroke-miterlimit="10" d="M683.037,242.589
			c0,0,1.764-0.737,4.191,0.587"/>
      <path fill="none" stroke="#3D3D3B" stroke-width="0.5381" stroke-linecap="round" stroke-miterlimit="10" d="M675.092,242.589
			c0,0-1.764-0.737-4.189,0.587"/>
      <path fill="#D6C6C1" d="M666.881,245.962c0,0,0.57,2.608,0.808,4.363c0.237,1.758,1.091,3.372,2.278,2.897l-1.031-7.32
			C668.936,245.902,667.261,244.254,666.881,245.962z"/>
      <path fill="none" stroke="#FFFFFF" stroke-width="0.6254" stroke-linecap="round" stroke-miterlimit="10" d="M675.27,254.19
			c0,0,3.924,2.216,8.102-0.631"/>
      <polygon fill="#D9D9D9" points="679.95,270.798 687.521,263.395 690.518,264.85 690.96,268.772 687.1,278.708 		"/>
      <polygon fill="#D9D9D9" points="677.401,270.798 671.086,263.395 666.834,264.85 666.391,268.772 670.251,278.708 		"/>
      <path fill="#1E1E1C" d="M690.932,233.682c-0.854-2.753-5.6-6.926-6.834-7.685c-0.792-0.489-2.911-1.056-4.328-1.397h-1.361
			c-1.416,0.342-3.536,0.908-4.329,1.397c-1.233,0.759-5.979,4.932-6.833,7.685c-0.854,2.754-1.804,8.26-0.285,11.202
			c0,0,1.139,2.276,1.52,2.183c0,0,0.758-6.359,0.758-7.309s-0.095-6.076,1.424-6.076c1.341,0,6.67,0,8.426-0.259
			c1.758,0.259,7.087,0.259,8.427,0.259c1.519,0,1.425,5.127,1.425,6.076s0.758,7.309,0.758,7.309
			c0.381,0.094,1.518-2.183,1.518-2.183C692.735,241.941,691.787,236.436,690.932,233.682z"/>
      <g>
        <circle fill="#F5F5F6" cx="674.283" cy="245.039" r="1.09"/>
        <circle fill="#1E1E1C" cx="674.284" cy="245.039" r="0.395"/>
      </g>
      <g>
        <circle fill="#F5F5F6" cx="683.66" cy="245.039" r="1.091"/>
        <circle fill="#1E1E1C" cx="683.66" cy="245.039" r="0.395"/>
      </g>
      <path fill="none" stroke="#D9D9D9" stroke-width="0.5494" stroke-linecap="round" stroke-miterlimit="10" d="M684.012,251.91
			c0,0,0.93,0.027,1.645,1.314"/>
      <path fill="none" stroke="#D9D9D9" stroke-width="0.5494" stroke-linecap="round" stroke-miterlimit="10" d="M672.826,253.744
			c0,0-0.096-0.927,1.084-1.809"/>
      <polygon fill="#102D43" points="679.045,277.56 683.24,273.428 680.393,270.517 678.92,270.517 678.43,270.517 676.958,270.517 
			674.11,273.428 678.306,277.56 678.305,277.606 678.355,277.609 678.414,277.668 678.675,277.642 678.937,277.668 
			678.995,277.609 679.046,277.606 		"/>
      <polygon fill="#102D43" points="679.045,328.221 683.24,298.164 680.393,276.99 678.92,276.99 678.43,276.99 676.958,276.99 
			674.11,298.164 678.306,328.221 678.305,328.541 678.355,328.578 678.414,329 678.675,328.813 678.937,329 678.995,328.578 
			679.046,328.541 		"/>
      <path fill="#C3B5B2" d="M679.547,243.459h-0.404h-0.455h-0.404l-1.512,5.526c0,0,1.127,0.91,1.825,0.993h0.091h0.455h0.091
			c0.698-0.083,1.826-0.993,1.826-0.993L679.547,243.459z"/>
      <polyline fill="none" stroke="#E48D6D" stroke-width="0.6254" stroke-miterlimit="10" points="760.403,335.325 768.053,319.733 
			778.936,323.264 783.938,316.793 790.409,318.557 798.352,300.907 806.294,301.199 811.295,290.315 		"/>
      <g>
        <line fill="none" stroke="#595958" stroke-width="0.6254" stroke-linecap="round" stroke-miterlimit="10" x1="756.503" y1="291.199" x2="758.935" y2="291.199"/>
        <line fill="none" stroke="#595958" stroke-width="0.6254" stroke-linecap="round" stroke-miterlimit="10" x1="756.503" y1="292.097" x2="758.935" y2="292.097"/>
        <path fill="none" stroke="#595958" stroke-width="0.6254" stroke-linecap="round" stroke-miterlimit="10" d="M761.017,293.516
				c-0.284,0.2-0.618,0.337-0.987,0.386c-1.188,0.152-2.273-0.688-2.427-1.877c-0.151-1.185,0.688-2.273,1.876-2.424
				c0.547-0.073,1.073,0.068,1.496,0.357"/>
      </g>
      <g>
        <line fill="none" stroke="#595958" stroke-width="0.6254" stroke-linecap="round" stroke-miterlimit="10" x1="818.137" y1="337.146" x2="820.566" y2="337.146"/>
        <line fill="none" stroke="#595958" stroke-width="0.6254" stroke-linecap="round" stroke-miterlimit="10" x1="818.137" y1="338.043" x2="820.566" y2="338.043"/>
        <path fill="none" stroke="#595958" stroke-width="0.6254" stroke-linecap="round" stroke-miterlimit="10" d="M822.649,339.462
				c-0.282,0.202-0.618,0.341-0.986,0.385c-1.189,0.154-2.275-0.687-2.428-1.875c-0.151-1.187,0.689-2.274,1.876-2.425
				c0.548-0.071,1.074,0.071,1.496,0.358"/>
      </g>
      <polyline fill="none" stroke="#595958" stroke-width="1.2508" stroke-linecap="round" stroke-miterlimit="10" points="
			816.193,338.061 760.715,339.523 759.44,297.083 		"/>
      <g>
        <polygon fill="#C7C6C7" points="622.321,278.767 581.904,278.767 581.023,278.205 621.44,278.205 			"/>
        <rect x="581.938" y="278.877" fill="#EDEDED" width="40.384" height="28.14"/>
        <polygon fill="#C7C6C7" points="581.89,278.861 581.037,278.255 581.037,307.965 581.89,308.744 			"/>
        <rect x="585.277" y="283.439" fill="#C4BCB6" width="33.838" height="20.685"/>
        <g>
          <line fill="none" stroke="#FFFFFF" stroke-width="1.1231" stroke-linecap="round" stroke-miterlimit="10" x1="598.095" y1="292.87" x2="602.459" y2="292.87"/>
          <line fill="none" stroke="#FFFFFF" stroke-width="1.1231" stroke-linecap="round" stroke-miterlimit="10" x1="598.095" y1="294.484" x2="602.459" y2="294.484"/>
          <path fill="none" stroke="#FFFFFF" stroke-width="1.1231" stroke-linecap="round" stroke-miterlimit="10" d="M606.197,297.032
					c-0.508,0.363-1.109,0.608-1.771,0.694c-2.134,0.272-4.085-1.236-4.358-3.369c-0.272-2.135,1.237-4.086,3.368-4.357
					c0.984-0.126,1.93,0.128,2.688,0.645"/>
        </g>
        <polygon fill="#EDEDED" points="633.869,315.354 593.451,315.354 581.938,307.017 622.354,307.017 			"/>
        <polygon fill="#C7C6C7" points="633.869,317.599 593.451,317.599 593.404,315.355 633.821,315.355 			"/>
        <polygon fill="#C7C6C7" points="593.451,315.354 581.938,306.852 581.909,308.857 593.451,317.599 			"/>
      </g>
    </g>
  </g>
</svg>
