<?xml version="1.0" encoding="utf-8"?>
<!--Generator: Adobe Illustrator 16.0.0, SVG Export Plug-In . SVG Version: 6.00 Build 0)-->
<!DOCTYPE svg PUBLIC "-//W3C//DTD SVG 1.1//EN" "http://www.w3.org/Graphics/SVG/1.1/DTD/svg11.dtd">
<svg version="1.1" id="Layer_1" xmlns="http://www.w3.org/2000/svg" xmlns:xlink="http://www.w3.org/1999/xlink" x="0px" y="0px" width="980px" height="540px" viewBox="0 0 980 540" enable-background="new 0 0 980 540" xml:space="preserve">
  <path fill="#F5F5F6" d="M597.051,368.001L597.051,368.001l-1.372-1.059l-0.016-1.001l-7.894-0.588l-0.145,4.965
	c-0.023,0.332-0.012,0.67,0.051,1.012c0.398,2.21,2.514,3.677,4.721,3.278c1.928-0.348,3.289-2.002,3.342-3.885h0.002l-0.001-0.086
	c0.647,0.145,1.337-0.144,1.667-0.755C597.756,369.237,597.59,368.456,597.051,368.001z"/>
  <path fill="#3C4D61" d="M657.719,356.535l-0.748-62.976l5.555-18.835l-21.197-10.868h-26.013l-15.657,9.318l2.438,20.385
	l5.646,58.567c-0.037,0.589-0.062,1.185-0.062,1.784C607.681,361.271,657.719,356.535,657.719,356.535z"/>
  <g>
    <path fill="#102D43" d="M624.584,350.932c-9.713,1.943-13.395,1.825-13.244,10.817l15.93,69.236
		c2.314,6.085,10,10.212,16.154,7.997c6.224-2.24,10.654-9.669,8.413-15.892c-0.151-0.422-13.497-60.697-13.497-60.697
		C636.806,354.731,634.299,348.985,624.584,350.932z"/>
    <path fill="#102D43" d="M633.021,416.959c-7.244,4.664-6.742,10.7-4.381,16.947l47.381,48.768c3.169,3.638,6.795-0.41,8.115-1.657
		c0.624-0.591,3.195-0.867,0.047-4.617c-0.214-0.253-35.295-55.848-35.295-55.848C645.882,415.607,637.9,413.819,633.021,416.959z"/>
    <path fill="#455A6C" d="M689.672,481.851l-6.01-6.187l-7.139,7.235c0,0-2.6,5.428-3.564,7.212c-0.35,0.501-0.596,1.08-0.705,1.714
		c-0.057,0.245-0.051,0.362-0.051,0.362c-0.207,2.359,1.539,4.44,3.898,4.647C677.717,496.976,689.672,481.851,689.672,481.851z"/>
    <path fill="#102D43" d="M640.256,344.656c-9.1,3.916-12.725,4.563-10.714,13.328l29.931,64.432
		c3.525,5.477,11.898,7.92,17.463,4.476c5.623-3.482,8.418-11.665,4.936-17.288c-0.236-0.383-25.783-56.583-25.783-56.583
		C653,345.841,649.356,340.742,640.256,344.656z"/>
    <path fill="#102D43" d="M662.194,407.501c-6.122,6.066-4.38,11.868-0.774,17.49l56.459,37.891c3.854,2.901,6.562-1.812,7.594-3.305
		c0.49-0.705,2.945-1.511-0.91-4.525c-0.262-0.204-46.102-47.322-46.102-47.322C674.493,403.517,666.316,403.42,662.194,407.501z"/>
    <path fill="#455A6C" d="M731.061,459.246l-7.162-4.805l-5.484,8.555c0,0-1.416,5.85-1.99,7.796
		c-0.238,0.562-0.359,1.179-0.334,1.819c-0.004,0.255,0.023,0.367,0.023,0.367c0.287,2.353,2.426,4.026,4.777,3.738
		C722.502,476.521,731.061,459.246,731.061,459.246z"/>
  </g>
  <polygon fill="#D9D9D9" points="637.646,263.203 636.979,256.859 619.907,257.366 619.078,263.188 619.705,275.896 638.441,275.896 
	"/>
  <path fill="#EDEDED" d="M639.489,238.048c0.003-0.068,0.004-0.135,0.004-0.204c0-6.06-4.705-11.019-10.663-11.433v-0.03
	c-0.133,0-0.267,0.006-0.399,0.011c-0.134-0.005-0.267-0.011-0.401-0.011v0.03c-5.957,0.414-10.662,5.373-10.662,11.433
	c0,0.069,0.002,0.136,0.003,0.204c-0.074,2.668,0.635,8.819,0.672,9.515c0.03,0.592,0.136,3.747,0.179,5.08
	c-0.012,0.109-0.02,0.22-0.02,0.335c0,0.396,0.082,0.776,0.229,1.12c1.683,6.645,7.306,8.182,7.306,8.182l0.016,0.001
	c0.588,0.179,1.302,0.3,2.078,0.341v0.016l0.102-0.01c0.152,0.004,0.307,0.01,0.463,0.01c0.012,0,0.023-0.002,0.036-0.002
	c0.012,0,0.022,0.002,0.035,0.002c0.157,0,0.312-0.006,0.462-0.01l0.102,0.01v-0.016c0.778-0.041,1.49-0.162,2.08-0.341l0.014-0.001
	c0,0,5.627-1.537,7.307-8.182c0.148-0.344,0.23-0.724,0.23-1.12c0-0.115-0.006-0.226-0.021-0.335c0.044-1.333,0.147-4.488,0.18-5.08
	C638.855,246.867,639.566,240.716,639.489,238.048z"/>
  <circle fill="#3C4D61" cx="602.933" cy="279.757" r="7.354"/>
  <circle fill="#3C4D61" cx="594.4" cy="320.353" r="6.398"/>
  <polygon fill="#3C4D61" points="610.287,279.757 596.08,277.087 592.916,288.639 592.945,288.639 588.168,318.863 600.357,321.015 
	608.3,288.581 "/>
  <polyline fill="#868686" points="642.74,276.277 633.4,274.146 631.311,275.287 "/>
  <path fill="#4D483E" d="M637.826,232.699c0,0,0.952-1.201,1.984-1.279c1.031-0.081,3.094,1.585,2.936,4.284
	c-0.159,2.694-1.428,7.983-1.428,7.983l-2.373,1.082C638.945,244.77,640.284,235.159,637.826,232.699z"/>
  <path fill="none" stroke="#8A7570" stroke-width="0.5494" stroke-linecap="round" stroke-miterlimit="10" d="M631.147,241.1
	c0,0,2.671-1.41,5.617,0.283"/>
  <circle fill="#F5F5F6" cx="633.718" cy="243.273" r="0.825"/>
  <path fill="#1E1E1C" d="M633.42,243.273c0,0.165,0.133,0.3,0.298,0.3c0.167,0,0.3-0.135,0.3-0.3c0-0.162-0.133-0.298-0.3-0.298
	C633.553,242.976,633.42,243.111,633.42,243.273z"/>
  <path fill="none" stroke="#8A7570" stroke-width="0.5494" stroke-linecap="round" stroke-miterlimit="10" d="M625.714,241.1
	c0,0-2.673-1.41-5.619,0.283"/>
  <circle fill="#F5F5F6" cx="623.142" cy="243.273" r="0.826"/>
  <path fill="#1E1E1C" d="M623.441,243.273c0,0.165-0.133,0.3-0.299,0.3c-0.164,0-0.299-0.135-0.299-0.3
	c0-0.162,0.135-0.298,0.299-0.298C623.309,242.976,623.441,243.111,623.441,243.273z"/>
  <g>
    <path fill="none" stroke="#9F8F72" stroke-width="0.1091" stroke-miterlimit="10" d="M630.211,242.724c0,0,0.436-1.39,3.214-1.625
		c0,0,3.172-0.397,3.808,1.586c0,0,0.436,1.983-1.667,2.734c-2.103,0.755-4.362,0.12-5.313-0.909
		C630.252,244.51,629.774,243.873,630.211,242.724z"/>
    <line fill="none" stroke="#9F8F72" stroke-width="0.1091" stroke-miterlimit="10" x1="637.223" y1="242.622" x2="639.182" y2="242.43"/>
    <path fill="none" stroke="#9F8F72" stroke-width="0.1091" stroke-miterlimit="10" d="M629.841,243.662c0,0,0.089-1.163-0.589-1.178
		c-0.676-0.015-1.271,0.015-1.271,0.015"/>
    <path fill="none" stroke="#9F8F72" stroke-width="0.1091" stroke-miterlimit="10" d="M627.012,243.662c0,0-0.088-1.163,0.59-1.178
		c0.676-0.015,1.27,0.015,1.27,0.015"/>
    <path fill="none" stroke="#9F8F72" stroke-width="0.1091" stroke-miterlimit="10" d="M626.649,242.724c0,0-0.437-1.39-3.212-1.625
		c0,0-3.174-0.397-3.81,1.586c0,0-0.437,1.983,1.667,2.734c2.102,0.755,4.363,0.12,5.314-0.909
		C626.609,244.51,627.085,243.873,626.649,242.724z"/>
    <line fill="none" stroke="#9F8F72" stroke-width="0.1091" stroke-miterlimit="10" x1="619.639" y1="242.622" x2="617.678" y2="242.43"/>
  </g>
  <path fill="none" stroke="#9D9C9B" stroke-width="0.5494" stroke-linecap="round" stroke-miterlimit="10" d="M628.846,255.754
	c0,0,3.824,0.588,5.25-2.678"/>
  <path fill="none" stroke="#D9D9D9" stroke-width="0.5494" stroke-linecap="round" stroke-miterlimit="10" d="M633.976,251.572
	c0,0,0.93,0.027,1.645,1.315"/>
  <path fill="#D9D9D9" d="M630.945,247.905c-0.109-0.702-1.841-5.048-1.841-5.048c-0.177-0.284-0.388-0.203-0.534-0.272h-0.166
	c-0.145,0.069-0.356-0.012-0.533,0.272c0,0-1.73,4.346-1.842,5.048c-0.111,0.697-0.221,1.694,1.436,1.839
	c0,0,0.66,0.157,1.021,0.095c0.363,0.062,1.023-0.095,1.023-0.095C631.168,249.6,631.057,248.603,630.945,247.905z"/>
  <path fill="#868686" d="M630.17,244.483l-0.16-0.562c0.012-0.021,0.016-0.049,0.016-0.074c0-0.103-0.082-0.186-0.185-0.186
	s-0.186,0.083-0.186,0.186c0,0.029,0.009,0.057,0.021,0.081l0.179,0.739l0.007-0.005c0.022,0.079,0.094,0.137,0.178,0.137
	c0.103,0,0.186-0.083,0.186-0.186C630.225,244.564,630.203,244.518,630.17,244.483z"/>
  <path fill="#868686" d="M626.682,244.483l0.161-0.562c-0.011-0.021-0.017-0.049-0.017-0.074c0-0.103,0.084-0.186,0.186-0.186
	s0.186,0.083,0.186,0.186c0,0.029-0.009,0.057-0.02,0.081l-0.18,0.739l-0.008-0.005c-0.022,0.079-0.094,0.137-0.178,0.137
	c-0.102,0-0.186-0.083-0.186-0.186C626.627,244.564,626.648,244.518,626.682,244.483z"/>
  <path fill="#EDEDED" d="M639.123,244.563c0,0,1.163-1.906,2.195-0.876c1.031,1.031-0.133,3.121-0.371,3.757
	c-0.238,0.635-0.609,2.59-0.978,3.517c-0.37,0.927-0.317,1.243-1.296,1.402C638.674,252.363,638.778,245.516,639.123,244.563z"/>
  <path fill="#5A554B" d="M640.197,231.646c0,0-1.286-8.009-10.529-7.923c-7.219,0.066-14.359,4.681-14.201,14.914
	c0,0-0.476,4.047,2.538,6.664c0,0-1.269-6.028,2.381-11.345c3.649-5.315,9.124-5.077,11.978-4.203
	c2.857,0.87,5.463,2.945,5.463,2.945S639.483,232.678,640.197,231.646z"/>
  <path fill="#EDEDED" d="M617.738,244.563c0,0-1.164-1.906-2.195-0.876c-1.031,1.031,0.133,3.121,0.371,3.757
	c0.236,0.635,0.607,2.59,0.977,3.517c0.371,0.927,0.318,1.243,1.296,1.402C618.187,252.363,618.081,245.516,617.738,244.563z"/>
  <polygon fill="#3C4D61" points="600.577,321.896 588.002,320.353 587.781,365.643 595.723,366.259 "/>
  <g>
    <path fill="#3C4D61" d="M649.617,282.5c0,4.854,3.937,8.79,8.794,8.79c4.855,0,8.792-3.937,8.792-8.79
		c0-4.858-3.937-8.796-8.792-8.796C653.554,273.704,649.617,277.642,649.617,282.5z"/>
    <path fill="#F5F5F6" d="M694.524,282.833h-0.002l0.554,1.643l-0.54,0.842l6.242,4.867l2.874-4.052
		c0.203-0.264,0.381-0.55,0.518-0.868c0.895-2.063-0.053-4.459-2.11-5.35c-1.798-0.778-3.847-0.158-4.935,1.383l-0.003-0.003
		l-0.046,0.072c-0.458-0.479-1.192-0.621-1.806-0.296C694.623,281.412,694.326,282.158,694.524,282.833z"/>
    <circle fill="#3C4D61" cx="671.656" cy="322.322" r="6.398"/>
    <polygon fill="#3C4D61" points="666.787,279.001 652.975,283.261 655.562,294.955 655.586,294.942 665.448,323.908 
		677.235,320.131 669.143,287.734 	"/>
    <polygon fill="#3C4D61" points="666.022,319.247 675.633,327.503 700.929,289.936 694.66,285.02 	"/>
  </g>
  <path fill="#3C4D61" d="M607.681,352.029c0,0,15.714,7.198,49.249-0.21l-0.755-12.592l-48.647,1.753L607.681,352.029z"/>
  <line fill="none" stroke="#9D9C9A" stroke-width="0.5669" stroke-miterlimit="10" x1="657.851" y1="0" x2="657.851" y2="336.77"/>
  <polygon fill="#EDEDED" points="613.329,276.184 629.479,347.27 631.251,347.355 643.447,274.773 627.097,275.258 "/>
  <polygon fill="#455A6C" points="644.957,267.276 650.539,279.278 646.771,281.686 651.795,285.069 649.003,293.56 632.539,339.863 
	641.328,263.856 "/>
  <path fill="#FFFFFF" d="M637.422,261.37c0,0,1.473,6.914-7.875,13.917l10.081,3.294l1.837-14.725L637.422,261.37z"/>
  <path fill="#FFFFFF" d="M619.332,261.519c0,0-1.178,6.471,7.901,13.769l-10.081,3.294l-1.837-14.725L619.332,261.519z"/>
  <polygon fill="#455A6C" points="611.674,267.276 606.092,279.278 609.859,281.686 604.836,285.069 607.627,293.56 627.715,339.767 
	615.303,263.856 "/>
  <g>
    <circle fill="none" stroke="#FFFFFF" stroke-width="0.6254" stroke-miterlimit="10" cx="657.827" cy="338.254" r="1.538"/>
    <line fill="none" stroke="#FFFFFF" stroke-width="0.6254" stroke-miterlimit="10" x1="657.829" y1="339.792" x2="657.829" y2="341.747"/>
  </g>
  <line fill="none" stroke="#9D9C9A" stroke-width="0.5669" stroke-miterlimit="10" x1="606.851" y1="0" x2="606.851" y2="336.77"/>
  <g>
    <circle fill="none" stroke="#FFFFFF" stroke-width="0.6254" stroke-miterlimit="10" cx="606.828" cy="338.254" r="1.538"/>
    <line fill="none" stroke="#FFFFFF" stroke-width="0.6254" stroke-miterlimit="10" x1="606.828" y1="339.792" x2="606.828" y2="341.747"/>
  </g>
  <g>
    <path fill="#C7C6C7" stroke="#C7C6C7" stroke-width="0.6148" stroke-linejoin="round" stroke-miterlimit="10" d="M606.729,341.337
		v0.122c0-0.04,0.01-0.081,0.013-0.122H606.729z"/>
    <path fill="#C7C6C7" stroke="#C7C6C7" stroke-width="0.6148" stroke-linejoin="round" stroke-miterlimit="10" d="M657.818,341.337
		c0.003,0.041,0.014,0.082,0.014,0.122v-0.122H657.818z"/>
    <path fill="#C7C6C7" stroke="#C7C6C7" stroke-width="0.6148" stroke-linejoin="round" stroke-miterlimit="10" d="M632.279,347.713
		c-14.111,0-25.551-2.801-25.551-6.254v13.61h0.004c0,0.015-0.004,0.026-0.004,0.04c0,3.455,11.439,6.254,25.551,6.254
		c14.112,0,25.553-2.799,25.553-6.254c0-0.014-0.006-0.025-0.006-0.04h0.006v-13.61
		C657.832,344.912,646.392,347.713,632.279,347.713z"/>
  </g>
  <g>
    <path fill="#706F70" d="M623.145,356.386h-1.101v-2.801l-1.245,2.044h-0.124l-1.245-2.044v2.801h-1.102v-4.817h1.102l1.307,2.141
		l1.308-2.141h1.101V356.386z"/>
    <path fill="#706F70" d="M629.202,355.629h-1.789l-0.241,0.757h-1.204l1.638-4.817h1.404l1.638,4.817h-1.204L629.202,355.629z
		 M628.872,354.597l-0.564-1.769l-0.564,1.769H628.872z"/>
    <path fill="#706F70" d="M635.094,354.803h-0.523v1.583h-1.101v-4.817h1.927c0.915,0,1.651,0.736,1.651,1.651
		c0,0.592-0.357,1.129-0.888,1.397l1.025,1.769h-1.184L635.094,354.803z M634.57,353.84h0.826c0.303,0,0.551-0.269,0.551-0.62
		c0-0.351-0.248-0.619-0.551-0.619h-0.826V353.84z"/>
    <path fill="#706F70" d="M642.754,356.386l-1.541-2.229v2.229h-1.102v-4.817h1.102v2.092l1.473-2.092h1.252l-1.624,2.347
		l1.692,2.471H642.754z"/>
  </g>
</svg>
